<svg width="299" height="299" fill="none" xmlns="http://www.w3.org/2000/svg"><path d="M299 149.5c0 82.57-66.933 149.5-149.501 149.5C66.933 299 0 232.07 0 149.5 0 66.934 66.933 0 149.499 0 232.067 0 299 66.934 299 149.5Z" fill="#1FB6BC"/><path d="M149.499 9.861C72.381 9.861 9.861 72.381 9.861 149.5a138.94 138.94 0 0 0 22.221 75.536h234.835a138.952 138.952 0 0 0 22.22-75.536c0-77.12-62.518-139.639-139.638-139.639" fill="#fff"/><path d="M63.19 57.374c1.5.028 2.846.294 4.034.799 1.187.506 2.19 1.18 3.01 2.027a8.448 8.448 0 0 1 1.864 3.01c.424 1.16.634 2.411.634 3.748 0 1.339-.21 2.586-.635 3.75a8.423 8.423 0 0 1-1.863 3.008 8.546 8.546 0 0 1-3.01 2.048c-1.188.491-2.534.752-4.035.778-1.446-.026-2.757-.287-3.931-.778a9.036 9.036 0 0 1-3.031-2.048 8.657 8.657 0 0 1-1.946-2.99 9.99 9.99 0 0 1-.676-3.686c0-1.337.226-2.593.676-3.768a9.307 9.307 0 0 1 1.905-3.072c.819-.847 1.822-1.52 3.01-2.027 1.188-.503 2.519-.771 3.993-.799Zm0 15.36a4.319 4.319 0 0 0 1.986-.472 5.197 5.197 0 0 0 1.618-1.29c.437-.52.785-1.14 1.044-1.864.26-.724.39-1.482.39-2.273 0-.765-.13-1.495-.39-2.191a6.668 6.668 0 0 0-1.044-1.864 4.759 4.759 0 0 0-1.577-1.228 4.442 4.442 0 0 0-1.987-.45 4.733 4.733 0 0 0-3.604 1.597 5.679 5.679 0 0 0-1.085 1.822 6.359 6.359 0 0 0-.39 2.232c0 .791.123 1.55.37 2.273.245.725.586 1.36 1.023 1.905.438.547.963.983 1.577 1.31.614.328 1.303.492 2.068.492m-3.972 7.127h4.587v7.904c0 .792.396 1.188 1.188 1.188h16.833c.601 0 .9.397.9 1.188 0 1.72-.56 2.58-1.678 2.58H63.886c-1.557 0-2.724-.266-3.502-.798-.778-.533-1.167-1.523-1.167-2.97V79.86Zm22.772-1.706c0 1.72-.213 3.026-.635 3.912-.423.888-1.112 1.33-2.069 1.33h-.655c-.819 0-1.228-.394-1.228-1.185V56.719h4.587v9.338h4.833c.6 0 .9.397.9 1.188 0 1.72-.56 2.58-1.679 2.58H81.99v8.33Z" fill="#1FB6BC"/><path d="M98.796 66.885c1.361 5.165 8.836 8.02 8.836 8.02s-1.359 1.496-3.398 3.398c-1.223-.815-5.71-2.99-7.477-6.387-2.31 4.758-8.293 6.797-8.293 6.797s-2.582-1.905-2.854-2.992c8.522-2.664 8.42-9.107 8.42-9.107V61.92H87.56v-3.768h17.325c.573 0 .86.41.86 1.229 0 1.692-.547 2.54-1.638 2.54h-5.325l.015 4.964ZM92.924 79.86h4.587v7.904c0 .794.41 1.188 1.23 1.188h17.242c.6 0 .901.397.901 1.188 0 1.72-.56 2.58-1.679 2.58H97.593c-1.53 0-2.69-.266-3.481-.798-.793-.533-1.188-1.523-1.188-2.97V79.86Zm11.513-14.909h7.082V56.72h4.628V78.03c0 1.72-.205 3.046-.614 3.973-.41.93-1.106 1.393-2.089 1.393h-.656c-.847 0-1.269-.395-1.269-1.186V68.719h-7.082v-3.768Zm14.536 10.035h4.857v-8.171h4.546v8.17h11.221c.599 0 1.988-1.41 1.988-.62 0 1.695-1.648 4.348-2.766 4.348h-19.846v-3.727Zm14.786-3.316a41.528 41.528 0 0 0 1.003-5.163c.205-1.638.307-3.194.307-4.669h-13.802v-3.686h16.382c1.337 0 2.007.63 2.007 1.886v.53a35.15 35.15 0 0 1-.368 5.202 32.035 32.035 0 0 1-1.065 4.71c-.246.793-.847 1.19-1.802 1.19h-2.662Zm-3.482 21.05c-.929 0-1.694-.074-2.293-.225-.602-.149-1.078-.402-1.434-.758a2.973 2.973 0 0 1-.758-1.392 8.344 8.344 0 0 1-.225-2.09v-6.92h4.628v6.431c0 .791.397 1.186 1.188 1.186h16.833c.602 0 .901.397.901 1.19 0 1.718-.56 2.578-1.679 2.578h-17.161Zm21.998-20.536h-4.403v5.587c0 1.884-.199 3.332-.594 4.341-.396 1.011-1.098 1.516-2.109 1.516h-.656c-.847 0-1.269-.395-1.269-1.188V56.719h4.628v11.656h4.403v3.809Zm1.714-3.178h12.124c.437 0 .655-.382.655-1.145v-5.57h-12.779v-3.77h15.482c1.285 0 1.925.63 1.925 1.886v6.551c0 3.85-.996 5.775-2.99 5.775h-9.829v5.98c0 .573.286.86.86.86h14.089c.573 0 .86.383.86 1.147 0 1.72-.558 2.58-1.679 2.58h-14.868c-2.567 0-3.85-1.242-3.85-3.727V69.006Zm28.263 19.62c0 3.111-.901 4.668-2.703 4.668h-.697c-.819 0-1.228-.397-1.228-1.188V56.678h4.628v31.948Zm13.884-31.252c1.475.028 2.811.294 4.014.799a9.543 9.543 0 0 1 3.072 2.027 8.412 8.412 0 0 1 1.863 3.01c.423 1.16.635 2.411.635 3.748 0 1.339-.212 2.588-.635 3.75a8.388 8.388 0 0 1-1.863 3.008 8.945 8.945 0 0 1-3.072 2.05c-1.203.49-2.539.75-4.014.776-1.474-.026-2.798-.287-3.973-.776a8.907 8.907 0 0 1-2.99-2.009 8.43 8.43 0 0 1-1.924-2.97 10.066 10.066 0 0 1-.656-3.665c0-1.337.211-2.594.635-3.768a8.82 8.82 0 0 1 1.864-3.072c.819-.873 1.817-1.57 2.989-2.089 1.173-.517 2.525-.791 4.055-.819m0 15.359c.711 0 1.367-.156 1.966-.471a5.27 5.27 0 0 0 1.597-1.29 5.573 5.573 0 0 0 1.086-1.864 6.689 6.689 0 0 0 .389-2.271c0-.767-.13-1.497-.389-2.193a6.652 6.652 0 0 0-1.045-1.864 5.245 5.245 0 0 0-1.617-1.228 4.384 4.384 0 0 0-1.946-.45 4.47 4.47 0 0 0-1.986.45c-.615.3-1.153.696-1.618 1.187a5.677 5.677 0 0 0-1.085 1.823 6.429 6.429 0 0 0-.39 2.275c0 .79.123 1.541.369 2.25.246.71.587 1.34 1.024 1.885.438.547.97.977 1.597 1.29a4.502 4.502 0 0 0 2.048.471m-3.934 7.127h4.629v7.904c0 .794.396 1.188 1.187 1.188h17.243c.602 0 .9.397.9 1.188 0 1.72-.561 2.58-1.678 2.58h-17.57c-1.557 0-2.732-.266-3.523-.798-.791-.533-1.188-1.523-1.188-2.97V79.86Zm23.223-1.147c0 3.087-.899 4.628-2.703 4.628h-.655c-.819 0-1.229-.397-1.229-1.188V56.72h4.587v21.994Zm1.638-5.61h33.954c.599 0 .901.41.901 1.23 0 1.693-.562 2.539-1.679 2.539h-33.176v-3.769Zm4.917-15.973h24.37c.599 0 .899.41.899 1.229 0 1.692-.561 2.54-1.678 2.54h-8.561c.217.6.634 1.187 1.249 1.76.614.574 1.4 1.12 2.357 1.639a21.07 21.07 0 0 0 3.151 1.495c1.175.45 2.43.84 3.769 1.167.597.164.899.545.899 1.147 0 .79-.192 1.407-.574 1.843-.383.437-.765.655-1.146.655a1.043 1.043 0 0 1-.328-.04c-2.839-.71-5.313-1.55-7.413-2.52-2.1-.97-3.59-2.055-4.463-3.256-1.011 1.2-2.532 2.286-4.567 3.256-2.034.97-4.484 1.81-7.349 2.52-.108.03-.219.044-.33.04-.384 0-.765-.218-1.147-.655-.381-.436-.573-1.052-.573-1.843 0-.628.327-1.024.983-1.188a31.185 31.185 0 0 0 3.766-1.167c1.173-.45 2.225-.95 3.154-1.495a11.818 11.818 0 0 0 2.252-1.639c.6-.573 1.011-1.146 1.229-1.72h-9.953V57.13h.004Zm12.531 22.197c1.886 0 3.584.192 5.099.574 1.516.383 2.806.9 3.869 1.556 1.039.655 1.836 1.42 2.396 2.294.562.875.84 1.815.84 2.826 0 .983-.272 1.917-.818 2.805-.545.888-1.338 1.672-2.375 2.355-1.037.656-2.322 1.173-3.848 1.557-1.529.381-3.251.573-5.161.573-1.886 0-3.591-.192-5.12-.573-1.528-.384-2.813-.901-3.848-1.557-1.04-.683-1.843-1.461-2.418-2.334a4.985 4.985 0 0 1-.86-2.785c0-1.011.287-1.959.86-2.847.575-.886 1.378-1.659 2.418-2.314 1.037-.655 2.32-1.173 3.848-1.556 1.529-.382 3.234-.574 5.118-.574m-.041 10.854c1.065 0 2.069-.097 3.011-.287.942-.19 1.766-.45 2.477-.778.712-.328 1.265-.71 1.661-1.147.393-.435.592-.9.592-1.392 0-.492-.199-.955-.592-1.393-.396-.436-.949-.82-1.661-1.147a13.127 13.127 0 0 0-2.477-.737c-.992-.195-2-.291-3.011-.287-1.121 0-2.148.097-3.09.287-.837.16-1.654.407-2.439.737-.681.328-1.216.711-1.597 1.147-.382.438-.574.901-.574 1.393 0 .491.192.957.574 1.392.381.438.916.82 1.597 1.147.681.328 1.497.588 2.439.778.942.19 1.969.287 3.09.287M64.837 109.094v18.892h18.31v-18.892h11.088v49.169H83.147v-20.575h-18.31v20.575H53.749v-49.169h11.088Zm46.909 36.547-3.502 12.62H96.791l14.955-49.169h14.59l15.318 49.169h-12.036l-3.794-12.62h-14.078Zm12.473-8.316-3.064-10.433c-.875-2.918-1.75-6.565-2.48-9.484h-.145c-.73 2.919-1.46 6.639-2.262 9.484l-2.917 10.433h10.868Zm54.497 19.624c-1.969.947-6.638 2.115-12.547 2.115-16.998 0-25.751-10.651-25.751-24.657 0-16.779 11.963-26.043 26.845-26.043 5.762 0 10.141 1.095 12.111 2.188l-2.335 8.753c-2.189-.947-5.326-1.822-9.338-1.822-8.754 0-15.61 5.324-15.61 16.267 0 9.849 5.836 16.05 15.682 16.05 3.43 0 7.077-.657 9.339-1.605l1.604 8.754Z" fill="#1FB6BC"/><path d="M216.285 156.949c-1.969.947-6.637 2.114-12.548 2.114-16.997 0-25.75-10.65-25.75-24.656 0-16.779 11.963-26.043 26.845-26.043 5.764 0 10.139 1.094 12.11 2.187l-2.334 8.754c-2.19-.948-5.326-1.823-9.338-1.823-8.754 0-15.611 5.325-15.611 16.268 0 9.848 5.837 16.05 15.685 16.05 3.427 0 7.074-.658 9.336-1.605l1.605 8.754Zm3.724-47.2c3.429-.583 8.243-1.022 15.025-1.022 6.857 0 11.748 1.314 15.028 3.939 3.213 2.48 5.252 6.566 5.252 11.381 0 4.814-1.531 8.973-4.524 11.671-3.793 3.502-9.411 5.179-15.974 5.179-1.461 0-2.773-.073-3.796-.29v17.654h-11.013v-48.512h.002Zm11.013 22.322c.95.219 2.044.292 3.724.292 5.905 0 9.556-2.992 9.556-7.951 0-4.524-3.139-7.224-8.754-7.224-2.191 0-3.721.147-4.526.365v14.518Z" fill="#1FB6BC"/><path d="M254.243 151.103c.523 1.458.825 2.94.825 4.448 0 19.808-46.663 35.862-104.225 35.862-57.56 0-104.223-16.054-104.223-35.862 0-1.979.484-3.919 1.382-5.809-8.313 5.76-13.038 12.308-13.038 19.256 0 23.025 51.58 41.692 115.209 41.692 63.625 0 115.205-18.665 115.205-41.692 0-6.405-4.001-12.472-11.135-17.895Z" fill="#F8B62F"/><path d="M76.322 244.834c.923 1.32 2.234 2.364 3.932 3.139l-1.615 1.839a17.003 17.003 0 0 1-3.566-2.292c-1.091-.923-1.842-1.806-2.251-2.636-.47.83-1.25 1.702-2.34 2.61a17.918 17.918 0 0 1-3.478 2.273l-1.385-1.794c1.56-.831 2.787-1.881 3.68-3.139 1.227-1.756 1.842-3.969 1.842-6.635h3.386c0 2.71.6 4.924 1.795 6.635Zm8.772 6.773v8.249h-3.362v-5.818H67.846v-2.431h17.248Zm0-1.16H81.73v-12.433h3.364v12.433Zm22.109-.25h-8.135v1.979h7.022v7.475H88.637v-7.475h7.067v-1.979h-8.182v-2.453h19.681v2.453Zm-.772-11.728v2.457h-2.569v3.113h2.569v2.431H88.318v-2.431h2.612v-3.113h-2.612v-2.457h18.113Zm-14.432 18.82h10.727v-2.705H91.999v2.705Zm2.296-13.25h6.204v-3.117h-6.204v3.117Zm29.837-6.025h3.34v21.864h-3.34v-1.59h-15.637v-2.498h15.637v-17.776Zm-3.934 1.935c1.059 1.228 1.59 2.757 1.59 4.591 0 1.833-.531 3.364-1.59 4.591-1.167 1.377-2.772 2.064-4.818 2.064-2.061 0-3.675-.687-4.84-2.064-1.047-1.227-1.568-2.756-1.568-4.591 0-1.847.521-3.377 1.568-4.591 1.165-1.363 2.779-2.046 4.84-2.046 2.048 0 3.653.681 4.818 2.046Zm-7.112 1.659c-.469.754-.703 1.736-.703 2.93 0 1.197.234 2.174.703 2.928.546.866 1.318 1.298 2.318 1.298.985 0 1.75-.432 2.296-1.298.484-.767.728-1.746.728-2.928 0-1.184-.244-2.16-.728-2.93-.561-.866-1.326-1.296-2.296-1.296-1 0-1.772.43-2.318 1.296Zm28.155-1.933c1.014 1.076 1.521 2.454 1.521 4.135 0 1.668-.507 3.04-1.521 4.112-1.138 1.201-2.737 1.799-4.796 1.799-2.076 0-3.675-.598-4.796-1.799-1.014-1.072-1.523-2.444-1.523-4.112 0-1.679.509-3.059 1.523-4.135 1.121-1.182 2.72-1.774 4.796-1.774 2.057 0 3.656.592 4.796 1.774Zm7.067 11.932v8.249h-3.364v-5.794h-13.567v-2.453h16.931v-.002Zm-14.136-10.271c-.44.605-.659 1.431-.659 2.474 0 1.033.219 1.85.659 2.457.515.698 1.273 1.047 2.273 1.047.985 0 1.735-.349 2.249-1.047.456-.607.683-1.426.683-2.457 0-1.045-.227-1.869-.683-2.474-.514-.684-1.264-1.024-2.249-1.024-1.002 0-1.758.34-2.273 1.024Zm14.136-3.32v2.115h2.295v2.411h-2.295v2.997h2.295v2.436h-2.295v2.451h-3.364v-12.41h3.364Zm22.425 12.181h-8.135v1.979h7.022v7.475h-17.453v-7.475h7.067v-1.979h-8.182v-2.453h19.681v2.453Zm-.772-11.728v2.457h-2.569v3.113h2.569v2.431h-18.112v-2.431h2.611v-3.113h-2.611v-2.457h18.112Zm-14.432 18.82h10.727v-2.705h-10.727v2.705Zm2.296-13.25h6.205v-3.117h-6.205v3.117Zm25.655-4.204c1.045 1.167 1.568 2.629 1.568 4.384 0 1.728-.523 3.175-1.568 4.342-1.137 1.301-2.697 1.955-4.682 1.955-1.999 0-3.569-.654-4.704-1.955-1.032-1.167-1.545-2.614-1.545-4.342 0-1.755.513-3.218 1.545-4.384 1.135-1.286 2.705-1.934 4.704-1.934 1.983 0 3.545.648 4.682 1.934Zm-6 17.361h13.317v2.453h-16.681v-7.158h3.364v4.705Zm-.864-15.655c-.469.709-.703 1.612-.703 2.705 0 1.074.234 1.967.703 2.679a2.46 2.46 0 0 0 2.182 1.18c.924 0 1.644-.393 2.16-1.18.484-.713.726-1.605.726-2.679 0-1.093-.242-1.996-.726-2.705-.516-.79-1.236-1.185-2.16-1.185a2.457 2.457 0 0 0-2.182 1.185m14.045-3.525v6.66h2.318v2.591h-2.318v6.613h-3.364v-15.864h3.364Zm15.448.455v2.453h-4.386c0 2.151.59 4.016 1.772 5.593.941 1.242 2.212 2.265 3.819 3.066l-1.523 1.953a19.516 19.516 0 0 1-3.273-1.998c-1.091-.832-1.917-1.664-2.476-2.5-.532.817-1.342 1.653-2.431 2.5a20.395 20.395 0 0 1-3.228 1.998l-1.363-1.953c1.575-.771 2.809-1.793 3.703-3.066 1.091-1.545 1.636-3.411 1.636-5.593H194.2v-2.453h11.909Zm-7.452 18.706h13.613v2.474h-16.979v-7.041h3.364v4.567h.002Zm13.497-3.206h-3.364v-8.253h-3.703v-2.476h3.703v-5.226h3.364v15.955Zm7.564-14.022v-2.048h3.366v2.048h4.613v2.433h-4.613c-.093 3.956.425 7.168 1.545 9.632.877 1.942 2.165 3.472 3.863 4.595l-1.614 1.681a10.862 10.862 0 0 1-3.248-2.82c-1.091-1.408-1.873-3.074-2.344-5.003-.484 1.912-1.302 3.58-2.452 5.003a11.87 11.87 0 0 1-3.318 2.82l-1.476-1.681a11.345 11.345 0 0 0 3.952-4.613c1.212-2.484 1.79-5.691 1.728-9.614h-4.498v-2.433h4.496Zm13.613 19.931h-3.364v-11.049h-3.999v-2.407h3.999v-8.41h3.364v21.866Z" fill="#fff"/></svg>