<svg width="55" height="63" fill="none" xmlns="http://www.w3.org/2000/svg"><g clip-path="url('#clip0_162_1290')" fill="#F5731C"><path d="M46.746 60.376H8.25c-.915 0-5.501-.26-5.501-5.252 0-5.13 11.505-22.733 18.753-32.62l.497-.68V2.627h10.999v19.197l.496.68c7.249 9.887 18.75 27.49 18.75 32.62.004 4.799-4.218 5.231-5.498 5.252ZM35.75 21V2.627h2.75V0h-22v2.627h2.753V21S.003 47.252.003 55.127c0 7.876 8.25 7.876 8.25 7.876h38.5s8.25 0 8.25-7.876S35.75 21 35.75 21Z"/><path d="M16.501 53.094c1.518 0 2.75-1.175 2.75-2.624 0-1.45-1.232-2.624-2.75-2.624s-2.749 1.175-2.749 2.624c0 1.45 1.23 2.624 2.749 2.624ZM31.975 57.687c2.046 0 3.704-1.583 3.704-3.536 0-1.954-1.658-3.537-3.704-3.537-2.046 0-3.705 1.584-3.705 3.537 0 1.953 1.66 3.536 3.705 3.536ZM25.632 52.753c1.917 0 3.47-1.483 3.47-3.313s-1.553-3.312-3.47-3.312c-1.916 0-3.47 1.483-3.47 3.312 0 1.83 1.554 3.313 3.47 3.313ZM24.994 45.221c2.831 0 5.126-2.19 5.126-4.892 0-2.702-2.295-4.893-5.126-4.893-2.83 0-5.125 2.19-5.125 4.893 0 2.702 2.295 4.892 5.125 4.892ZM35.473 43.294c1.518 0 2.749-1.174 2.749-2.624 0-1.45-1.231-2.624-2.75-2.624-1.518 0-2.748 1.175-2.748 2.624 0 1.45 1.23 2.624 2.749 2.624ZM33.914 48.64c1 0 1.812-.774 1.812-1.73 0-.955-.811-1.73-1.812-1.73s-1.812.775-1.812 1.73c0 .956.81 1.73 1.812 1.73Z"/></g><defs><clipPath id="clip0_162_1290"><path fill="#fff" d="M0 0h55v63H0z"/></clipPath></defs></svg>