<svg width="67" height="82" fill="none" xmlns="http://www.w3.org/2000/svg"><circle cx="26.489" cy="26" r="26" fill="#E7EFFA"/><path fill-rule="evenodd" clip-rule="evenodd" d="M42.862 20.625c-11.314 0-20.485 9.4-20.485 20.996 0 8.729 5.197 16.215 12.592 19.382h.016v.007a19.99 19.99 0 0 0 7.879 1.608 19.991 19.991 0 0 0 7.878-1.61v-.005h.013c7.395-3.167 12.592-10.653 12.592-19.382 0-11.596-9.171-20.996-20.485-20.996Zm11.032 42.43C61.39 58.988 66.5 50.915 66.5 41.62c0-13.38-10.583-24.227-23.636-24.227-13.054 0-23.636 10.848-23.636 24.227 0 9.297 5.11 17.373 12.607 21.433v17.33c0 .293.077.58.224.83.147.252.357.457.608.595a1.545 1.545 0 0 0 1.618-.08l8.579-5.864 8.58 5.863a1.55 1.55 0 0 0 2.226-.513c.146-.251.224-.538.224-.83v-17.33Zm-3.152 1.414a23.08 23.08 0 0 1-7.878 1.38c-2.763 0-5.413-.485-7.877-1.378v12.897l7.004-4.788a1.549 1.549 0 0 1 1.749 0l7.002 4.788V64.469Zm-7.878-34.153c-1.449 0-2.883.292-4.221.86a11.016 11.016 0 0 0-3.579 2.451 11.329 11.329 0 0 0-2.39 3.668 11.552 11.552 0 0 0 0 8.653 11.329 11.329 0 0 0 2.39 3.668 11.017 11.017 0 0 0 3.579 2.45c1.338.569 2.772.861 4.22.861 2.926 0 5.732-1.19 7.8-3.311a11.45 11.45 0 0 0 3.23-7.995 11.45 11.45 0 0 0-3.23-7.994 10.895 10.895 0 0 0-7.8-3.311ZM28.682 41.62c0-3.855 1.494-7.552 4.154-10.278 2.66-2.726 6.267-4.258 10.028-4.258 3.76 0 7.368 1.532 10.028 4.258s4.153 6.423 4.153 10.278c0 3.856-1.494 7.553-4.153 10.28-2.66 2.725-6.267 4.257-10.028 4.257s-7.369-1.532-10.028-4.258c-2.66-2.726-4.154-6.423-4.154-10.279Z" fill="#5189CC"/></svg>