<svg width="71" height="59" fill="none" xmlns="http://www.w3.org/2000/svg"><path fill-rule="evenodd" clip-rule="evenodd" d="M59.65 30.692c.015-.395.023-.793.023-1.192a29.362 29.362 0 0 0-4.681-15.953l.218-.17c2.303 1.776 10.512 8.614 12.55 17.315h-8.11Zm-.16 2.11c.078-.697.131-1.4.16-2.11H42.66c1.978-8.445 9.77-15.135 12.332-17.145a29.58 29.58 0 0 0-1.204-1.73c.272-.21.547-.416.824-.62a1.002 1.002 0 0 1 1.196 0 43.554 43.554 0 0 1 7.224 6.68c4.782 5.485 7.295 11.25 7.295 16.682A15.117 15.117 0 0 1 52.01 49.334a29.677 29.677 0 0 0 1.567-1.873 12.972 12.972 0 0 0 10.51-3.41H55.84c.39-.686.753-1.39 1.088-2.11h8.987a13.34 13.34 0 0 0 1.723-3.515h-9.34c.22-.692.414-1.396.583-2.11h9.214c.085-.581.126-1.169.123-1.757 0-.587-.035-1.174-.106-1.758H59.49Zm0 0a29.417 29.417 0 0 1-.609 3.515H42.325a13.587 13.587 0 0 1-.017-3.516H59.49Zm-1.192 5.624H42.782c.399 1.25.979 2.435 1.723 3.516h12.423a29.298 29.298 0 0 0 1.37-3.516Zm-2.458 5.625h-9.507a12.973 12.973 0 0 0 7.244 3.41 29.548 29.548 0 0 0 2.263-3.41Zm-3.83 5.283C46.614 55.272 38.83 59 30.173 59 13.88 59 .673 45.792.673 29.5S13.88 0 30.173 0c9.66 0 18.234 4.642 23.615 11.818a43.556 43.556 0 0 0-6.4 6.06c-4.782 5.484-7.295 11.25-7.295 16.681A15.118 15.118 0 0 0 52.01 49.334Z" fill="#5189CC"/></svg>