<svg width="72" height="79" fill="none" xmlns="http://www.w3.org/2000/svg"><circle cx="26.5" cy="26" r="26" fill="#E7EFFA"/><path d="M51.188 77v1.5a1.5 1.5 0 0 0 1.5-1.454l-1.5-.046Zm1.656-6.142.526 1.405-.526-1.405ZM70.5 45.713H72a1.5 1.5 0 0 0-1.5-1.5v1.5Zm-55 0v-1.5a1.5 1.5 0 0 0-1.5 1.5h1.5Zm16.99 24.885-.562 1.39.563-1.39ZM34.828 77l-1.487.199a1.5 1.5 0 0 0 1.487 1.301V77Zm-3.534-22.174a1.5 1.5 0 0 0-2.868.88l2.868-.88Zm.528 4.442-1.187.917.007.01 1.18-.927Zm2.05 4.067a1.5 1.5 0 0 0 1.786-2.41l-1.787 2.41Zm9.452-18.248a1.5 1.5 0 0 0 2.692 1.322l-2.692-1.322ZM53.774 27.1l1.35.655.002-.006-1.352-.65Zm9.735 4.101 1.343.67v-.002l-1.343-.668Zm-8.483 13.855a1.5 1.5 0 1 0 2.694 1.322l-2.694-1.322Zm-2.339 31.989c.056-1.819.218-3.126.449-3.984.115-.428.23-.677.312-.805.08-.125.071-.05-.078.006l-1.053-2.81c-.644.242-1.093.712-1.399 1.192-.303.476-.518 1.041-.679 1.637-.32 1.19-.492 2.767-.55 4.672l2.998.092Zm.684-4.784C64.248 68.18 72 57.847 72 45.712h-3c0 10.813-6.908 20.072-16.684 23.742l1.055 2.808ZM70.5 44.212h-55v3h55v-3Zm-56.5 1.5c0 11.871 7.42 22.02 17.928 26.276l1.126-2.78C23.612 65.382 17 56.29 17 45.713h-3ZM31.928 71.99c-.123-.05.146.016.52 1.041.335.918.641 2.29.892 4.169l2.974-.398c-.263-1.966-.604-3.584-1.048-4.8-.405-1.109-1.047-2.322-2.212-2.793l-1.126 2.78Zm-3.503-16.283c.534 1.743 1.26 3.25 2.209 4.479l2.374-1.833c-.677-.878-1.26-2.04-1.715-3.526l-2.868.88Zm2.216 4.488a16.898 16.898 0 0 0 3.23 3.141l1.786-2.41a13.896 13.896 0 0 1-2.656-2.583l-2.36 1.852ZM46.015 46.41c3.051-6.21 6.087-12.429 9.109-18.653l-2.7-1.31c-3.019 6.22-6.053 12.434-9.101 18.64l2.692 1.323Zm9.111-18.659c.562-1.17 1.355-1.8 2.185-2.075.852-.282 1.882-.233 2.953.22l1.169-2.763c-1.63-.69-3.415-.85-5.065-.305-1.67.553-3.064 1.787-3.946 3.624l2.705 1.299Zm5.138-1.855c1.922.813 2.643 3.15 1.902 4.639l2.686 1.337c1.528-3.07.063-7.267-3.419-8.74l-1.169 2.764Zm1.903 4.638c-.704 1.412-3.086 6.256-7.14 14.524l2.693 1.322a4373.817 4373.817 0 0 1 7.132-14.508l-2.685-1.338ZM34.827 78.5h16.361v-3H34.827v3Z" fill="#5189CC"/></svg>