<svg width="26" height="27" fill="none" xmlns="http://www.w3.org/2000/svg"><path d="M8.668 13.26a4.333 4.333 0 1 1 8.667 0 4.333 4.333 0 0 1-8.667 0Zm-2.342 0a6.675 6.675 0 1 0 13.35 0 6.675 6.675 0 0 0-13.35 0ZM18.38 6.32a1.56 1.56 0 1 0 3.12 0 1.56 1.56 0 0 0-3.12 0ZM7.748 23.843c-1.267-.058-1.956-.269-2.414-.447a4.044 4.044 0 0 1-1.495-.973 4.019 4.019 0 0 1-.972-1.494c-.179-.458-.39-1.146-.448-2.414-.063-1.37-.075-1.782-.075-5.253 0-3.472.013-3.883.075-5.254.058-1.268.27-1.955.448-2.414.236-.607.517-1.04.972-1.496a4.014 4.014 0 0 1 1.495-.972c.458-.178 1.147-.39 2.414-.447 1.37-.063 1.782-.076 5.253-.076 3.472 0 3.882.014 5.254.076 1.267.058 1.955.27 2.414.447.607.235 1.04.518 1.495.972.455.455.736.889.972 1.496.179.458.39 1.146.448 2.414.063 1.371.075 1.782.075 5.254 0 3.47-.012 3.882-.075 5.253-.058 1.268-.27 1.956-.448 2.414a4.032 4.032 0 0 1-.972 1.494 4.035 4.035 0 0 1-1.495.973c-.458.178-1.147.39-2.415.447-1.37.063-1.782.076-5.253.076-3.47 0-3.882-.013-5.253-.076ZM7.641.34C6.257.402 5.312.622 4.486.943a6.38 6.38 0 0 0-2.303 1.5 6.361 6.361 0 0 0-1.5 2.302c-.32.827-.54 1.772-.603 3.156C.016 9.287 0 9.73 0 13.26c0 3.53.015 3.973.079 5.36.063 1.383.282 2.328.604 3.155.331.854.776 1.58 1.499 2.302a6.374 6.374 0 0 0 2.303 1.5c.827.321 1.771.54 3.155.604 1.388.063 1.83.079 5.36.079 3.531 0 3.973-.015 5.36-.08 1.384-.062 2.329-.282 3.155-.603a6.392 6.392 0 0 0 2.303-1.5 6.383 6.383 0 0 0 1.5-2.302c.32-.827.541-1.772.603-3.156.063-1.387.078-1.83.078-5.36 0-3.53-.015-3.973-.078-5.36-.063-1.383-.282-2.328-.604-3.155a6.393 6.393 0 0 0-1.5-2.302 6.375 6.375 0 0 0-2.3-1.5C20.69.622 19.744.401 18.361.34 16.976.276 16.532.26 13.002.26c-3.531 0-3.973.015-5.36.08Z" fill="#000"/></svg>