<svg width="143" height="138" fill="none" xmlns="http://www.w3.org/2000/svg"><ellipse cx="87" cy="118.5" rx="56" ry="19.5" fill="#F4F4F4"/><g clip-path="url('#clip0_386_854')"><path d="M14.39 96.113c-.684-2.27-2.78-3.925-5.25-3.925s-4.564 1.655-5.248 3.925A5.535 5.535 0 0 0 0 101.406a5.536 5.536 0 0 0 3.892 5.294c.684 2.269 2.779 3.925 5.249 3.925 2.47 0 4.565-1.656 5.248-3.925a5.536 5.536 0 0 0 3.892-5.294 5.535 5.535 0 0 0-3.892-5.293Zm-1.593 7.137c-1.01 0-1.828.826-1.828 1.844 0 1.017-.821 1.844-1.828 1.844a1.84 1.84 0 0 1-1.829-1.844 1.838 1.838 0 0 0-1.828-1.844 1.838 1.838 0 0 1-1.828-1.844c0-1.016.821-1.844 1.828-1.844a1.838 1.838 0 0 0 1.829-1.843c0-1.018.82-1.844 1.828-1.844a1.84 1.84 0 0 1 1.828 1.844c0 1.016.819 1.844 1.828 1.844 1.009 0 1.828.827 1.828 1.843a1.84 1.84 0 0 1-1.828 1.844Z" fill="#A2A2A2"/><path d="M54.844 11.063h-3.657c-1.009 0-1.828.825-1.828 1.843s.82 1.844 1.828 1.844h3.657c1.009 0 1.828-.826 1.828-1.844a1.837 1.837 0 0 0-1.828-1.844ZM40.219 14.75h3.656c1.01 0 1.828-.826 1.828-1.844a1.837 1.837 0 0 0-1.828-1.844h-3.656c-1.01 0-1.828.827-1.828 1.844 0 1.018.819 1.844 1.828 1.844ZM50.783 7.362l3.435 1.261c.207.078.417.113.626.113.746 0 1.448-.465 1.716-1.215a1.846 1.846 0 0 0-1.093-2.362l-3.435-1.261A1.82 1.82 0 0 0 49.688 5a1.846 1.846 0 0 0 1.094 2.362h.001ZM40.476 3.577l3.435 1.26c.207.078.42.113.626.113.746 0 1.448-.464 1.716-1.215a1.846 1.846 0 0 0-1.093-2.361L41.725.112a1.819 1.819 0 0 0-2.342 1.103 1.846 1.846 0 0 0 1.093 2.362ZM54.219 17.191l-3.435 1.261a1.847 1.847 0 0 0-1.094 2.362c.27.749.971 1.215 1.717 1.215.208 0 .419-.037.625-.112l3.435-1.262a1.847 1.847 0 0 0 1.093-2.361 1.819 1.819 0 0 0-2.341-1.103ZM43.911 20.974l-3.435 1.262a1.847 1.847 0 0 0-1.093 2.361c.269.749.971 1.215 1.717 1.215.208 0 .419-.036.625-.112l3.435-1.261a1.847 1.847 0 0 0 1.093-2.362 1.819 1.819 0 0 0-2.343-1.103h.002Z" fill="#F5731C"/><path d="M5.484 35.031h5.67a9.188 9.188 0 0 0 1.338 3.232l-4.017 4.051a1.853 1.853 0 0 0 0 2.607 1.815 1.815 0 0 0 2.585 0l4.016-4.05a9.03 9.03 0 0 0 3.205 1.349v5.718c0 1.017.82 1.843 1.828 1.843 1.01 0 1.828-.826 1.828-1.843V42.22a9.03 9.03 0 0 0 3.205-1.35l4.017 4.051a1.815 1.815 0 0 0 2.585 0 1.853 1.853 0 0 0 0-2.607l-4.017-4.05a9.19 9.19 0 0 0 1.338-3.233h5.67c1.008 0 1.828-.826 1.828-1.843a1.837 1.837 0 0 0-1.829-1.844h-5.669a9.19 9.19 0 0 0-1.338-3.232l4.017-4.051a1.853 1.853 0 0 0 0-2.607 1.815 1.815 0 0 0-2.585 0l-4.017 4.05a9.03 9.03 0 0 0-3.204-1.349v-5.718a1.837 1.837 0 0 0-1.829-1.843c-1.009 0-1.828.826-1.828 1.843v5.718a9.03 9.03 0 0 0-3.204 1.35l-4.017-4.051a1.815 1.815 0 0 0-2.585 0 1.853 1.853 0 0 0 0 2.607l4.017 4.05a9.188 9.188 0 0 0-1.339 3.233H5.484c-1.009 0-1.828.826-1.828 1.843 0 1.018.82 1.844 1.828 1.844Zm14.625-7.375c3.024 0 5.485 2.482 5.485 5.532s-2.46 5.53-5.485 5.53c-3.023 0-5.484-2.48-5.484-5.53 0-3.05 2.46-5.532 5.484-5.532Z" fill="#A2A2A2"/><path d="M21.938 29.5H18.28v3.688h3.657V29.5ZM49.36 71.906h-5.631a12.866 12.866 0 0 0-2.417-5.87l3.985-4.02a1.853 1.853 0 0 0 0-2.607 1.815 1.815 0 0 0-2.585 0l-3.985 4.02a12.66 12.66 0 0 0-5.82-2.438v-5.678a1.837 1.837 0 0 0-1.829-1.844c-1.009 0-1.828.826-1.828 1.843v5.68a12.642 12.642 0 0 0-5.82 2.437l-3.986-4.02a1.815 1.815 0 0 0-2.585 0 1.853 1.853 0 0 0 0 2.607l3.985 4.02a12.886 12.886 0 0 0-2.417 5.87h-5.63c-1.01 0-1.828.826-1.828 1.844 0 1.018.819 1.844 1.828 1.844h5.63a12.866 12.866 0 0 0 2.417 5.87l-3.985 4.02a1.853 1.853 0 0 0 0 2.607 1.815 1.815 0 0 0 2.585 0l3.985-4.02a12.661 12.661 0 0 0 5.821 2.438v5.678c0 1.018.819 1.844 1.828 1.844 1.01 0 1.828-.826 1.828-1.844V86.51a12.642 12.642 0 0 0 5.821-2.438l3.985 4.02a1.815 1.815 0 0 0 2.585 0 1.853 1.853 0 0 0 0-2.607l-3.985-4.02a12.887 12.887 0 0 0 2.417-5.87h5.63c1.01 0 1.828-.826 1.828-1.844a1.837 1.837 0 0 0-1.828-1.844ZM31.077 82.97c-5.04 0-9.14-4.136-9.14-9.219 0-5.083 4.1-9.219 9.14-9.219 5.04 0 9.14 4.136 9.14 9.219 0 5.083-4.1 9.219-9.14 9.219Z" fill="#A2A2A2"/><path d="M29.25 68.219h-3.656v3.687h3.656V68.22ZM36.563 71.906h-3.657v3.688h3.657v-3.688ZM29.25 75.594h-3.656v3.687h3.656v-3.687Z" fill="#A2A2A2"/><path d="M102.375 30.857v-5.044h3.656c.525 0 1.024-.227 1.371-.624.348-.396.508-.923.444-1.449C105.841 7.561 95.503 7.375 95.064 7.375H62.158c-1.01 0-1.828.826-1.828 1.844v7.375c0 1.017.819 1.843 1.828 1.843h5.678c.134 2.567-.243 7.873-4.947 11.432a1.854 1.854 0 0 0-.365 2.581 1.82 1.82 0 0 0 2.559.369c5.76-4.357 6.5-10.626 6.415-14.08 3.21 1.03 3.448 4.453 3.457 5.23 0 1.017.819 1.843 1.828 1.843h3.656v5.133l-8.742 19.397c-2.545 1.596-13.195 8.929-13.195 19.72v38.719c0 5.083 4.1 9.219 9.14 9.219h40.219c5.04 0 9.141-4.136 9.141-9.219V66.375c0-9.044-12.655-32-14.625-35.518h-.002Zm-38.39-19.794h3.656v3.687h-3.657v-3.688Zm7.312 3.827v-3.828h23.745c.29.008 6.779.294 8.85 11.063h-25.47c-.557-2.882-2.474-6.485-7.125-7.235Zm27.422 10.922V29.5H84.094v-3.688h14.625Zm14.625 82.969c0 3.05-2.461 5.531-5.485 5.531H67.641c-3.024 0-5.485-2.481-5.485-5.531V70.062c0-9.843 11.759-16.768 11.878-16.837.332-.191.597-.485.754-.837l8.655-19.2H99.48c4.311 7.74 13.863 26.32 13.863 33.187v42.406Z" fill="#F5731C"/><path d="M65.813 68.219v36.875c0 3.049 2.46 5.531 5.484 5.531h32.906c3.024 0 5.485-2.482 5.485-5.531V64.531c0-.286-.066-.57-.192-.824l-7.313-14.75a1.832 1.832 0 0 0-1.095-.937 1.823 1.823 0 0 0-1.428.152L66.754 66.609c-.58.325-.94.942-.94 1.612l-.001-.002Zm3.656 1.084 30.297-16.976 6.265 12.637v40.128a1.84 1.84 0 0 1-1.828 1.844H71.297a1.84 1.84 0 0 1-1.828-1.844V69.301v.002Z" fill="#F5731C"/><path d="M80.438 81.125h3.656v3.688c0 1.017.819 1.843 1.828 1.843h7.312c1.01 0 1.829-.826 1.829-1.844v-3.687h3.656c1.009 0 1.828-.826 1.828-1.844v-7.375c0-1.018-.82-1.844-1.828-1.844h-3.656v-3.687a1.837 1.837 0 0 0-1.829-1.844h-7.312c-1.01 0-1.828.826-1.828 1.844v3.688h-3.656c-1.01 0-1.829.825-1.829 1.843v7.375c0 1.018.82 1.844 1.829 1.844Zm1.828-7.375h3.656c1.009 0 1.828-.826 1.828-1.844V68.22h3.656v3.687c0 1.018.82 1.844 1.828 1.844h3.657v3.688h-3.657c-1.009 0-1.828.825-1.828 1.843v3.688H87.75V79.28a1.837 1.837 0 0 0-1.828-1.844h-3.656V73.75ZM76.781 92.188h-3.656v3.687h3.656v-3.688ZM102.375 92.188H80.437v3.687h21.938v-3.688ZM102.375 99.563h-3.656v3.687h3.656v-3.688ZM95.063 99.563H73.124v3.687h21.938v-3.688Z" fill="#F5731C"/></g><defs><clipPath id="clip0_386_854"><path fill="#fff" d="M0 0h117v118H0z"/></clipPath></defs></svg>