<svg width="25" height="25" viewBox="0 0 25 25" fill="none" xmlns="http://www.w3.org/2000/svg">
<g clip-path="url('#clip0_179_715')">
<path d="M5.71567 11.9949H3.65942L9.41606 21.3406L24.2188 0.78125H22.1625L9.41606 14.7984L5.71567 11.9949Z" fill="#F5731C"></path>
<path d="M20.518 21.3406C20.518 21.5675 20.334 21.7515 20.1066 21.7515H3.65937C3.55035 21.7515 3.44579 21.7082 3.36866 21.6312C3.29153 21.5541 3.24815 21.4496 3.24805 21.3406V4.89292C3.24805 4.66558 3.43242 4.48159 3.65937 4.48159H14.907L17.1508 2.0144H1.60352C1.38546 2.01471 1.17644 2.1015 1.02229 2.25572C0.868142 2.40994 0.781457 2.61901 0.78125 2.83706V23.396C0.78125 23.8511 1.14961 24.2187 1.60352 24.2187H22.1625C22.2705 24.2188 22.3775 24.1976 22.4773 24.1563C22.5771 24.115 22.6678 24.0545 22.7442 23.9781C22.8205 23.9017 22.8811 23.811 22.9224 23.7112C22.9637 23.6114 22.9849 23.5044 22.9848 23.3964V7.42026L20.518 10.8472V21.3406Z" fill="#F5731C"></path>
</g>
<defs>
<clipPath id="clip0_179_715">
<rect width="25" height="25" fill="white"></rect>
</clipPath>
</defs>
</svg>
