<svg width="70" height="62" fill="none" xmlns="http://www.w3.org/2000/svg"><path fill-rule="evenodd" clip-rule="evenodd" d="M62.078 2.238c-3.974 2.711-5.943 4.309-10.845 8.803-4.197 3.826-4.123 3.788-5.311 2.563-2.452-2.637-11.44-5.015-14.003-3.64-1.226.631-1.077 1.894.223 1.894 3.528.037 6.797 1.671 9.582 4.011 2.489 2.117 2.489 2.006-1.04 5.497-3.788 3.715-9.174 9.843-12.182 13.817l-2.303 3.046-1.932-2.86c-4.568-6.834-9.508-10.214-12.554-8.617-1.114.594-.928.966 2.414 4.495 2.935 3.082 5.98 7.465 8.135 11.736 1.745 3.455 6.054 3.455 8.988-1.522 2.117-3.603 7.577-10.474 12.071-15.155l4.012-4.197.965 2.155c8.618 19.277-12.405 41.599-30.085 31.942-18.051-9.88-13.965-41.562 5.72-44.385 3.863-.557 3.937-1.857.111-2.34C14.164 8.144 1.536 19.843.2 31.507-2.327 53.755 19.625 68.24 41.093 58.546 54.13 52.678 60.22 31.581 52.16 20.438c-.594-.817-1.077-1.597-1.077-1.783 0-.78 6.649-6.723 13.706-12.146 7.948-6.128 3.825-8.728-2.712-4.27Z" fill="#F5731C"/></svg>