<svg width="140" height="140" fill="none" xmlns="http://www.w3.org/2000/svg"><path d="m131.25 14.936-6.186-6.186L8.75 125.064l6.186 6.186 8.75-8.75h90.064a8.756 8.756 0 0 0 6.183-2.567 8.756 8.756 0 0 0 2.567-6.183V23.686l8.75-8.75Zm-17.5 98.814H32.436l34.095-34.094 10.408 10.408a8.75 8.75 0 0 0 12.372 0l6.939-6.939 17.5 17.487v13.138Zm0-25.515-11.314-11.314a8.75 8.75 0 0 0-12.372 0l-6.939 6.939-10.4-10.4 41.025-41.024v55.799Zm-87.5 8.015V83.125l21.875-21.862 6.007 6.011 6.195-6.195-6.016-6.015a8.75 8.75 0 0 0-12.372 0L26.25 70.752V26.25h70V17.5h-70a8.758 8.758 0 0 0-8.75 8.75v70h8.75Z" fill="#fff"/></svg>