<svg width="74" height="70" fill="none" xmlns="http://www.w3.org/2000/svg"><path d="M15.924 0c-.05.005-.099.014-.147.025a6.133 6.133 0 0 0-4.078 1.805A6.213 6.213 0 0 0 9.9 5.933c-.02.092-.03.185-.03.278v43.44H1.429a1.223 1.223 0 0 0-1.224.553 1.05 1.05 0 0 0-.01.028 1.234 1.234 0 0 0-.061.1H.128a1.245 1.245 0 0 0-.081.235 1.25 1.25 0 0 0-.04.472v4.828a6.228 6.228 0 0 0 1.74 4.3 6.146 6.146 0 0 0 4.218 1.882c.04.01.08.018.12.025h33.371v6.68a1.248 1.248 0 0 0 .62 1.077 1.227 1.227 0 0 0 1.235-.005l4.46-2.628 4.126 2.609a1.226 1.226 0 0 0 1.724-.42c.112-.191.17-.41.17-.633v-6.678h6.164a6.143 6.143 0 0 0 4.249-1.732 6.225 6.225 0 0 0 1.887-4.206c.02-.09.03-.181.03-.273v-43.44h8.442a1.225 1.225 0 0 0 .987-.28h.01c.028-.026.055-.052.08-.08h.011a1.243 1.243 0 0 0 .333-1.067v-4.76a6.229 6.229 0 0 0-1.718-4.276A6.147 6.147 0 0 0 68.093.06a1.224 1.224 0 0 0-.274-.028H16.035a1.225 1.225 0 0 0-.11 0V0Zm.111 2.483h.015c2.064 0 3.684 1.643 3.684 3.723v4.859c-.007.102-.002.204.015.305a1.3 1.3 0 0 0 .005.045l.005.025c.063.308.24.58.496.762.256.182.57.259.88.216h40.52v23.497a1.28 1.28 0 0 0 0 .092v19.855c0 2.085-1.628 3.724-3.7 3.724h-6.164v-5.784c.286 0 .643 0 1.03.025.42 0 .854.024 1.253 0 .197 0 .387-.025.602-.07.214-.045.48-.032.875-.434.397-.405.385-.67.424-.89.042-.215.057-.404.064-.605.015-.402 0-.834-.014-1.256-.015-.422-.03-.84-.03-1.135v-.052c.017 0 .02-.025.04-.025.251-.151.611-.35.98-.553.37-.204.748-.407 1.086-.626.168-.109.325-.218.49-.362.163-.15.393-.273.536-.82.14-.548 0-.772-.074-.98a3.99 3.99 0 0 0-.247-.561 17 17 0 0 0-.634-1.082c-.222-.36-.444-.708-.591-.966-.01-.025-.01-.025-.02-.037.01-.025.007-.03.02-.05.143-.258.362-.608.581-.968.22-.363.44-.73.622-1.088.095-.182.175-.371.242-.566.069-.208.204-.434.056-.98s-.377-.67-.542-.815c-.155-.13-.32-.25-.493-.355a16.49 16.49 0 0 0-1.088-.62c-.37-.199-.74-.39-.994-.536-.017 0-.02-.025-.037-.025v-.055c-.005-.295.003-.71.015-1.134.01-.422.02-.854 0-1.257a3.963 3.963 0 0 0-.069-.605c-.042-.216-.037-.48-.436-.877-.402-.397-.664-.392-.878-.432a3.67 3.67 0 0 0-.602-.06c-.4-.024-.83 0-1.252.026-.42.024-.829.03-1.123.03h-.051l-.025-.05a25.95 25.95 0 0 1-.542-.988 17.007 17.007 0 0 0-.63-1.093 3.926 3.926 0 0 0-.36-.489c-.145-.163-.27-.397-.818-.538-.545-.144-.767-.003-.974.064-.19.069-.375.153-.552.25-.367.2-.725.414-1.075.641-.358.226-.698.45-.955.596-.02 0-.03.025-.049.025-.017 0-.022-.025-.042-.025-.256-.144-.6-.355-.96-.576a17.714 17.714 0 0 0-1.084-.635 3.805 3.805 0 0 0-.557-.244c-.205-.067-.43-.198-.972-.052-.542.15-.67.378-.814.544a3.91 3.91 0 0 0-.357.494c-.212.34-.415.727-.612 1.1-.197.372-.382.74-.53.993-.01.025-.012.025-.025.044h-.049c-.296 0-.703 0-1.124-.024-.42 0-.854-.025-1.253 0-.197 0-.387.032-.602.074-.214.042-.476.037-.87.442-.395.402-.39.665-.43.881-.036.2-.058.403-.063.606-.015.402 0 .834.014 1.256.015.422.03.84.03 1.135v.05c-.017 0-.02.024-.04.024-.251.15-.611.345-.98.546-.37.204-.748.412-1.086.63a4 4 0 0 0-.49.363c-.163.15-.393.274-.536.82-.14.548 0 .772.074.98.072.209.153.385.247.564.185.355.412.72.634 1.08.222.36.446.71.591.965l.02.043c-.007.024-.007.034-.02.05-.143.257-.362.602-.581.965-.221.354-.428.716-.622 1.085a4.05 4.05 0 0 0-.242.568c-.069.209-.204.432-.056.978.148.547.38.676.542.82.168.144.323.248.493.355.338.213.723.422 1.093.62.372.199.735.385.986.534.02 0 .025.027.04.027v.05c.005.295-.003.71-.015 1.135-.01.422-.02.854 0 1.256.012.198.024.39.069.605.042.216.037.48.439.877h.005c.4.4.656.392.87.432.215.042.402.06.602.07.4.024.838 0 1.257-.026.343-.024.642-.032.913-.034v5.707H11.067a6.157 6.157 0 0 0 1.238-3.45c.02-.09.03-.182.03-.274V50.99a1.252 1.252 0 0 0 0-.184V6.206c0-2.085 1.627-3.723 3.698-3.723h.002Zm4.898 0h46.886c2.071 0 3.699 1.638 3.699 3.723V9.93H63.08a1.226 1.226 0 0 0-.213-.025 1.225 1.225 0 0 0-.187.025H22.2V6.206c0-1.4-.483-2.68-1.267-3.723Zm-3.79 14.895a1.231 1.231 0 0 0-.854.408 1.248 1.248 0 0 0 .09 1.755c.242.221.562.336.89.32h39.453c.327 0 .641-.131.872-.364a1.245 1.245 0 0 0 0-1.756 1.229 1.229 0 0 0-.872-.363H17.268a1.207 1.207 0 0 0-.123 0h-.002Zm0 7.447a1.231 1.231 0 0 0-.854.409 1.247 1.247 0 0 0 .09 1.755c.242.221.562.336.89.319h39.453c.327 0 .641-.13.872-.364a1.245 1.245 0 0 0 0-1.755 1.229 1.229 0 0 0-.872-.364H17.268a1.268 1.268 0 0 0-.123 0h-.002Zm0 7.448a1.23 1.23 0 0 0-.854.408 1.247 1.247 0 0 0 .09 1.756c.242.22.562.335.89.319h14.795c.327 0 .64-.131.871-.364a1.245 1.245 0 0 0 0-1.755 1.229 1.229 0 0 0-.871-.364H17.268a1.207 1.207 0 0 0-.123 0h-.002Zm31.316.28v.01c.109.192.21.365.336.596.197.363.394.74.591 1.073.1.166.198.325.309.479.113.154.182.313.567.534h.007c.387.223.558.193.747.213.19.025.37.025.563.03.384 0 .81-.025 1.218-.04h.68c0 .224.005.43 0 .695-.01.41-.02.834-.014 1.222 0 .193 0 .375.024.566.02.19 0 .365.225.752.226.387.39.46.544.571.152.109.31.21.471.303.333.194.716.387 1.076.58.231.125.407.23.596.34-.108.192-.21.37-.345.597-.214.35-.434.715-.621 1.052-.094.164-.18.332-.257.504-.074.174-.18.316-.177.765 0 .452.103.59.182.77.08.173.17.33.264.496.192.335.42.7.636 1.048.14.225.242.4.353.59-.19.112-.363.219-.592.348-.36.194-.74.397-1.07.596a6.54 6.54 0 0 0-.469.303c-.152.114-.318.18-.537.57-.222.393-.197.572-.217.763-.02.19-.02.375-.02.568 0 .388.015.81.03 1.222.01.265.007.471.01.695h-.686c-.407 0-.833-.032-1.218-.03-.192 0-.37 0-.557.032-.19.025-.363.003-.748.224h-.005a1.303 1.303 0 0 0-.448.39 1.236 1.236 0 0 0-.577.933l-.42.777c-.123.233-.221.41-.332.6-.19-.108-.37-.205-.597-.344-.348-.214-.705-.44-1.04-.628-.168-.095-.326-.184-.501-.264-.175-.074-.313-.18-.76-.178-.446 0-.587.111-.764.188-.173.08-.333.167-.498.261-.333.194-.69.427-1.036.645-.222.142-.402.239-.592.348a16.757 16.757 0 0 1-.338-.596c-.197-.36-.394-.732-.591-1.067a5.64 5.64 0 0 0-.309-.477c-.113-.154-.18-.318-.567-.539-.39-.223-.557-.198-.747-.218-.192-.025-.377-.025-.57-.025-.384 0-.81.025-1.218.03h-.68c0-.224-.005-.422 0-.685.012-.41.02-.834.014-1.222 0-.193 0-.38-.024-.57-.02-.192 0-.37-.225-.758-.226-.387-.39-.45-.542-.56a6.348 6.348 0 0 0-.474-.306c-.332-.194-.715-.39-1.075-.584-.232-.124-.407-.23-.596-.34.108-.191.21-.37.345-.596.214-.35.434-.715.624-1.052a5.55 5.55 0 0 0 .254-.504c.076-.174.18-.315.177-.765 0-.45-.103-.586-.182-.762a5.586 5.586 0 0 0-.264-.504c-.192-.335-.42-.695-.636-1.043-.14-.223-.242-.402-.353-.59.19-.112.363-.219.592-.346.36-.196.74-.397 1.07-.595.165-.1.313-.194.469-.31.152-.115.318-.187.537-.579.222-.39.197-.559.217-.75.02-.19.02-.375.02-.568 0-.387-.015-.812-.03-1.222-.01-.265-.007-.471-.01-.695h.686c.407 0 .833.027 1.218.025.192 0 .37 0 .557-.027.19-.025.368 0 .752-.229.385-.226.447-.382.56-.538.111-.157.207-.318.303-.484.193-.336.39-.715.583-1.078.123-.233.221-.41.332-.6.19.109.37.203.597.344.348.214.705.44 1.04.631.168.094.326.174.501.25.175.078.316.187.762.184.444 0 .585-.111.76-.188.172-.08.335-.167.5-.26.336-.195.69-.428 1.036-.646.222-.142.404-.239.592-.348l.002-.002Zm-2.868 5.115c-.665 0-.907.342-1.067.521-.136.153-.254.32-.353.499-.19.333-.363.676-.518 1.028-.163.35-.315.695-.436.936-.005.024-.008.024-.012.034h-.035c-.264.043-.631.087-1.006.14a10.44 10.44 0 0 0-1.117.198 2.706 2.706 0 0 0-.575.199c-.214.104-.596.238-.799.888-.202.648.032.986.148 1.197.119.211.23.355.353.499.246.29.528.556.804.82.278.265.552.52.742.71.012 0 .01.024.02.024v.037c-.042.268-.116.638-.183 1.018-.069.38-.133.77-.16 1.15a2.9 2.9 0 0 0 .01.615c.03.241.034.656.577 1.053h.005c.542.397.927.273 1.161.223.235-.05.402-.119.575-.193.345-.15.683-.333 1.016-.522.33-.183.648-.377.885-.501.015 0 .02 0 .035-.025.012 0 .014 0 .027.025.239.124.562.305.897.489.333.181.673.365 1.021.509.173.072.345.139.577.184.234.044.617.163 1.157-.241.537-.405.542-.82.567-1.058a2.893 2.893 0 0 0 0-.616 11.441 11.441 0 0 0-.173-1.144c-.071-.38-.143-.752-.187-1.018l-.005-.035c.01 0 .007-.025.02-.025.187-.19.458-.449.732-.717.271-.268.547-.539.789-.83.12-.146.237-.29.353-.503.113-.213.345-.551.133-1.197-.21-.645-.592-.777-.81-.878a2.86 2.86 0 0 0-.576-.194 10.421 10.421 0 0 0-1.117-.184c-.377-.05-.75-.087-1.011-.126h-.035c-.007-.025-.007-.025-.015-.03-.123-.241-.278-.584-.443-.931-.16-.35-.337-.691-.53-1.023a2.872 2.872 0 0 0-.36-.497c-.163-.173-.412-.506-1.08-.5v-.008ZM17.143 39.72a1.231 1.231 0 0 0-.854.408 1.248 1.248 0 0 0 .09 1.755c.242.221.562.336.89.32h12.329c.327 0 .64-.132.872-.364a1.246 1.246 0 0 0 0-1.756 1.23 1.23 0 0 0-.872-.363h-12.33a1.207 1.207 0 0 0-.123 0h-.002Zm28.473 1.603c.07.15.138.298.207.437.08.154.156.298.247.447.091.15.13.29.476.544.345.25.488.246.656.285.165.04.325.067.493.092.153.025.316.042.473.062-.116.114-.234.226-.34.335a4.527 4.527 0 0 0-.343.38c-.108.134-.232.214-.362.626-.128.412-.074.554-.062.725.015.174.04.337.067.511.024.154.061.313.093.474-.143-.077-.288-.159-.424-.228a5.3 5.3 0 0 0-.458-.214c-.158-.064-.272-.158-.693-.153-.424 0-.543.099-.698.163-.154.067-.306.14-.454.219-.14.076-.28.154-.42.233.03-.161.06-.322.082-.477a5.85 5.85 0 0 0 .064-.508c.01-.174.062-.31-.074-.72-.133-.412-.254-.497-.364-.628a5.959 5.959 0 0 0-.346-.373l-.347-.335c.157-.025.32-.037.47-.062.17-.027.326-.06.494-.102.165-.042.31-.035.653-.29.343-.258.377-.4.469-.549.089-.149.162-.298.239-.457.069-.139.136-.288.202-.437ZM2.473 52.134h7.398v3.723c0 2.068-1.603 3.694-3.65 3.72h-.098A3.642 3.642 0 0 1 3.53 58.48a3.689 3.689 0 0 1-1.057-2.624v-3.724Zm14.672 0a1.231 1.231 0 0 0-.854.407 1.248 1.248 0 0 0 .087 1.755c.243.221.563.336.89.32h14.796c.327 0 .64-.13.871-.364a1.245 1.245 0 0 0 0-1.755 1.229 1.229 0 0 0-.871-.364H17.268a1.207 1.207 0 0 0-.123 0Zm29.714 4.014c.306.188.621.377.925.533.177.092.345.174.554.244.208.07.434.208.977.057h.01v9.533l-2.875-1.813a1.227 1.227 0 0 0-1.283-.03l-3.245 1.915v-9.638c.064.025.087.06.168.08.545.144.767 0 .974-.065a4.09 4.09 0 0 0 .555-.25c.254-.134.515-.303.774-.467v4.583c0 .329.13.645.361.878a1.23 1.23 0 0 0 1.744 0c.231-.233.36-.549.36-.878V56.148Z" fill="#F5731C"/></svg>