<svg width="39" height="38" fill="none" xmlns="http://www.w3.org/2000/svg"><g clip-path="url('#clip0_66_211')" fill-rule="evenodd" clip-rule="evenodd" fill="#fff"><path d="M34.04 10.583a1.596 1.596 0 0 0-.814-.915 1.664 1.664 0 0 0-1.24-.086 1.613 1.613 0 0 0-.939.794l-.105.18c-.28.432-.802.949-1.476 1.387-.79.513-1.485.724-1.841.724h-14.98l3.25 3.166h10.443c.81 1.59 1.287 3.487 1.287 5.542 0 1.828-.363 3.494-.986 4.927l5.736 5.589a8.549 8.549 0 0 0-.757-2.32c-.4-.775-1.035-1.614-1.965-2.137a15.485 15.485 0 0 0 1.203-5.267h3.269c.431 0 .844-.167 1.15-.464.304-.297.475-.7.475-1.12 0-.42-.171-.822-.476-1.12A1.647 1.647 0 0 0 34.125 19H30.7c-.19-1.268-.53-2.48-1.002-3.604a9.046 9.046 0 0 0 1.57-.818c1.06-.687 2.111-1.667 2.685-2.787.192-.375.224-.81.088-1.208Zm-7.246 21.139-2.305-2.247c-.99.97-2.145 1.652-3.364 1.976v-5.253l-3.25-3.167v8.42c-3.515-.935-6.5-4.837-6.5-10.076 0-1.441.235-2.805.655-4.04L5 10.486a1.555 1.555 0 0 0 .047 1.306c.572 1.12 1.627 2.1 2.685 2.787.494.323 1.02.597 1.57.818A15.173 15.173 0 0 0 8.3 19H4.875c-.431 0-.844.167-1.149.464-.305.297-.476.7-.476 1.12 0 .42.171.822.476 1.119.305.297.718.464 1.149.464h3.27c.088 1.81.494 3.593 1.202 5.269-.93.523-1.565 1.358-1.965 2.137A8.525 8.525 0 0 0 6.5 33.25c0 .42.171.823.476 1.12.305.297.718.463 1.149.463.431 0 .844-.166 1.15-.463.304-.297.475-.7.475-1.12a5.446 5.446 0 0 1 .54-2.26c.21-.411.42-.649.625-.775 2.036 2.788 5.047 4.618 8.585 4.618 2.852 0 5.362-1.19 7.294-3.111Zm-7.617-12.69 1.948 1.897v-.346c0-.42-.171-.822-.476-1.12a1.647 1.647 0 0 0-1.472-.431ZM23.563 5.81A8.286 8.286 0 0 0 19.5 4.75a8.287 8.287 0 0 0-4.064 1.06 8.022 8.022 0 0 0-2.974 2.898l-1.412 2.375h16.9l-1.414-2.375a8.02 8.02 0 0 0-2.973-2.898Z"/><path d="M5.077 3.25a1.806 1.806 0 0 1 2.507 0l29.61 28.85a1.696 1.696 0 0 1 0 2.444 1.806 1.806 0 0 1-2.506 0L5.077 5.692a1.696 1.696 0 0 1 0-2.443Z"/></g><defs><clipPath id="clip0_66_211"><path fill="#fff" d="M0 0h39v38H0z"/></clipPath></defs></svg>