<svg width="69" height="77" fill="none" xmlns="http://www.w3.org/2000/svg"><circle cx="26.989" cy="26" r="26" fill="#E7EFFA"/><path d="M65.122 22.822H20.805a3.878 3.878 0 0 0-3.878 3.877v16.26c0 24.374 20.69 32.49 24.818 33.847a3.74 3.74 0 0 0 1.218.194c.406.003.808-.062 1.191-.194C48.31 75.449 69 67.333 69 42.958V26.7a3.878 3.878 0 0 0-3.878-3.878Zm.554 20.136c0 22.104-18.78 29.444-22.546 30.69a.36.36 0 0 1-.333 0c-3.767-1.246-22.546-8.586-22.546-30.69V26.7a.554.554 0 0 1 .554-.554h44.317a.554.554 0 0 1 .554.554v16.26ZM53.49 46.642a1.662 1.662 0 0 1-1.662 1.662h-7.202v7.202a1.662 1.662 0 1 1-3.324 0v-7.202H34.1a1.662 1.662 0 0 1 0-3.324H41.3V37.78a1.662 1.662 0 1 1 3.324 0v7.201h7.202a1.662 1.662 0 0 1 1.662 1.662Z" fill="#5189CC"/></svg>