<svg width="117" height="119" fill="none" xmlns="http://www.w3.org/2000/svg"><ellipse cx="59.5" cy="108" rx="30.5" ry="11" fill="#F4F4F4"/><g clip-path="url('#clip0_386_858')"><path d="M102.375 24.017a1.855 1.855 0 0 0-.634-1.446 1.825 1.825 0 0 0-1.512-.42c-.27.048-27.208 4.635-40.437-8.706a1.815 1.815 0 0 0-2.584 0C43.979 26.786 17.04 22.199 16.77 22.15a1.813 1.813 0 0 0-1.512.42 1.86 1.86 0 0 0-.634 1.446c.02.724.527 17.973 6.016 36.66 7.375 25.102 20.326 40.445 37.453 44.371a1.92 1.92 0 0 0 .812 0c17.128-3.927 30.078-19.27 37.453-44.372 5.49-18.686 5.996-35.935 6.016-36.66ZM58.5 101.355c-34.074-8.234-39.367-63.484-40.107-75.242 6.868.852 27.564 2.305 40.107-8.835 12.543 11.142 33.245 9.687 40.107 8.835-.736 11.756-6.013 67.002-40.107 75.244v-.002Z" fill="#F5731C"/><path d="M93.935 30.863a1.83 1.83 0 0 0-1.408-.583c-1.044.04-2.15.066-3.307.066-8.391 0-20.355-1.325-29.703-7.642a1.812 1.812 0 0 0-2.035 0c-9.353 6.317-21.314 7.642-29.704 7.642a81.72 81.72 0 0 1-3.31-.066 1.861 1.861 0 0 0-1.41.582c-.362.391-.54.922-.482 1.457.681 6.42 2.115 16.188 5.073 26.264 6.404 21.795 16.614 34.86 30.345 38.83a1.798 1.798 0 0 0 1.005 0c13.673-3.955 23.854-16.928 30.263-38.557 3.004-10.131 4.457-20.023 5.15-26.537a1.854 1.854 0 0 0-.483-1.457h.006Zm-8.172 26.935c-5.949 20.07-15.12 32.151-27.263 35.916-12.2-3.783-21.398-15.952-27.341-36.183-2.576-8.771-3.967-17.319-4.708-23.51.435.005.878.009 1.33.009 8.599 0 20.78-1.34 30.72-7.602 9.94 6.262 22.121 7.602 30.723 7.602.447 0 .888-.004 1.323-.01-.751 6.28-2.164 14.943-4.78 23.776l-.004.002Z" fill="#A1A1A1"/><path d="M73.125 51.625h-7.313V44.25a1.836 1.836 0 0 0-1.828-1.844H53.016c-1.011 0-1.828.826-1.828 1.844v7.375h-7.313a1.835 1.835 0 0 0-1.828 1.844V64.53c0 1.02.817 1.844 1.828 1.844h7.313v7.375c0 1.02.817 1.844 1.828 1.844h10.968c1.011 0 1.828-.824 1.828-1.844v-7.375h7.313a1.834 1.834 0 0 0 1.828-1.844V53.47a1.835 1.835 0 0 0-1.828-1.844Zm-1.828 11.063h-7.313a1.834 1.834 0 0 0-1.828 1.843v7.375h-7.312v-7.375c0-1.02-.817-1.844-1.828-1.844h-7.313v-7.374h7.313a1.836 1.836 0 0 0 1.828-1.844v-7.375h7.312v7.375c0 1.017.817 1.843 1.828 1.843h7.313v7.376Z" fill="#F5731C"/><path d="M27.422 101.406c-6.05 0-10.969-4.961-10.969-11.062 0-1.02-.817-1.844-1.828-1.844a1.834 1.834 0 0 0-1.828 1.844c0 6.1-4.92 11.062-10.969 11.062-1.01 0-1.828.824-1.828 1.844s.817 1.844 1.828 1.844c6.05 0 10.969 4.961 10.969 11.062 0 1.02.817 1.844 1.828 1.844a1.834 1.834 0 0 0 1.828-1.844c0-6.101 4.92-11.062 10.969-11.062 1.01 0 1.828-.824 1.828-1.844s-.817-1.844-1.828-1.844Zm-12.797 7.615a14.79 14.79 0 0 0-5.722-5.771 14.791 14.791 0 0 0 5.722-5.77 14.791 14.791 0 0 0 5.722 5.77 14.789 14.789 0 0 0-5.722 5.771ZM115.172 9.219c-4.033 0-7.313-3.308-7.313-7.375A1.835 1.835 0 0 0 106.031 0a1.835 1.835 0 0 0-1.828 1.844c0 4.067-3.28 7.375-7.312 7.375-1.011 0-1.829.826-1.829 1.844 0 1.017.818 1.843 1.829 1.843 4.032 0 7.312 3.308 7.312 7.375 0 1.018.817 1.844 1.828 1.844a1.835 1.835 0 0 0 1.828-1.844c0-4.067 3.28-7.375 7.313-7.375A1.835 1.835 0 0 0 117 11.062a1.835 1.835 0 0 0-1.828-1.843Zm-9.141 4.954a11.124 11.124 0 0 0-3.084-3.11 11.125 11.125 0 0 0 3.084-3.11 11.137 11.137 0 0 0 3.084 3.11 11.139 11.139 0 0 0-3.084 3.11ZM107.859 92.188c-4.032 0-7.312-3.308-7.312-7.376 0-1.02-.817-1.843-1.828-1.843a1.834 1.834 0 0 0-1.828 1.844c0 4.067-3.28 7.374-7.313 7.374-1.01 0-1.828.825-1.828 1.844 0 1.02.817 1.844 1.828 1.844 4.033 0 7.313 3.308 7.313 7.375 0 1.02.817 1.844 1.828 1.844 1.01 0 1.828-.824 1.828-1.844 0-4.067 3.28-7.375 7.312-7.375a1.835 1.835 0 0 0 1.829-1.844c0-1.02-.818-1.844-1.829-1.844Zm-9.14 4.954a11.13 11.13 0 0 0-3.084-3.11 11.13 11.13 0 0 0 3.084-3.111 11.13 11.13 0 0 0 3.084 3.11 11.133 11.133 0 0 0-3.084 3.11ZM9.14 62.688h1.829v1.843c0 1.02.817 1.844 1.828 1.844 1.01 0 1.828-.824 1.828-1.844v-1.844h1.828a1.834 1.834 0 0 0 1.828-1.843c0-1.02-.817-1.844-1.828-1.844h-1.828v-1.844a1.835 1.835 0 0 0-1.828-1.843 1.835 1.835 0 0 0-1.828 1.843V59H9.14c-1.011 0-1.829.826-1.829 1.844 0 1.017.818 1.843 1.829 1.843ZM23.766 12.906h1.828v1.844c0 1.018.817 1.844 1.828 1.844 1.01 0 1.828-.826 1.828-1.844v-1.844h1.828a1.835 1.835 0 0 0 1.828-1.844 1.835 1.835 0 0 0-1.828-1.843H29.25V7.375a1.835 1.835 0 0 0-1.828-1.844 1.835 1.835 0 0 0-1.828 1.844v1.844h-1.828c-1.011 0-1.828.826-1.828 1.844 0 1.017.817 1.843 1.828 1.843Z" fill="#A1A1A1"/></g><defs><clipPath id="clip0_386_858"><path fill="#fff" d="M0 0h117v118H0z"/></clipPath></defs></svg>