<svg width="118" height="150" fill="none" xmlns="http://www.w3.org/2000/svg"><ellipse cx="59" cy="135.5" rx="43" ry="14.5" fill="#F4F4F4"/><g clip-path="url('#clip0_386_855')"><path d="M57.156 30.819v7.663c-1.442.13-2.863.4-4.24.83a1.826 1.826 0 0 0-1.206 2.293 1.846 1.846 0 0 0 2.312 1.195c1.602-.499 3.278-.753 4.978-.753 9.15 0 16.594 7.382 16.594 16.453 0 1.687-.257 3.347-.76 4.936a1.825 1.825 0 0 0 1.206 2.292 1.843 1.843 0 0 0 2.312-1.196 19.88 19.88 0 0 0 .837-4.204h7.729a7.356 7.356 0 0 0 7.113 5.484c4.067 0 7.375-3.28 7.375-7.312 0-4.033-3.308-7.313-7.375-7.313a7.356 7.356 0 0 0-7.113 5.485h-7.73a19.935 19.935 0 0 0-4.612-11.031l4.67-4.63c1.097.641 2.36 1.036 3.723 1.036 4.067 0 7.375-3.28 7.375-7.313 0-4.033-3.308-7.312-7.375-7.312-4.068 0-7.375 3.28-7.375 7.312 0 1.353.396 2.604 1.045 3.691l-4.67 4.631a20.267 20.267 0 0 0-11.125-4.572v-7.666c3.173-.817 5.53-3.656 5.53-7.052 0-4.033-3.307-7.313-7.374-7.313s-7.375 3.28-7.375 7.313c0 3.396 2.358 6.235 5.531 7.053Zm36.875 24.025c2.034 0 3.688 1.64 3.688 3.656s-1.654 3.656-3.688 3.656c-2.034 0-3.687-1.64-3.687-3.656s1.654-3.656 3.687-3.656ZM82.97 31.078c2.033 0 3.687 1.64 3.687 3.656 0 2.017-1.654 3.657-3.687 3.657-2.034 0-3.688-1.64-3.688-3.657 0-2.016 1.654-3.656 3.688-3.656ZM58.999 20.11c2.035 0 3.688 1.64 3.688 3.657 0 2.016-1.653 3.656-3.687 3.656s-3.688-1.64-3.688-3.656c0-2.017 1.654-3.657 3.688-3.657ZM60.844 86.181v-7.663c1.442-.13 2.863-.4 4.24-.83a1.826 1.826 0 0 0 1.206-2.293 1.846 1.846 0 0 0-2.312-1.195c-1.602.499-3.278.753-4.978.753-9.15 0-16.594-7.382-16.594-16.453 0-1.687.257-3.347.76-4.936a1.825 1.825 0 0 0-1.206-2.292 1.852 1.852 0 0 0-2.312 1.195 19.88 19.88 0 0 0-.837 4.205h-7.73a7.356 7.356 0 0 0-7.112-5.484c-4.068 0-7.375 3.28-7.375 7.312 0 4.033 3.307 7.313 7.375 7.313a7.356 7.356 0 0 0 7.113-5.485h7.73a19.935 19.935 0 0 0 4.612 11.031l-4.67 4.63c-1.097-.641-2.36-1.036-3.723-1.036-4.067 0-7.375 3.28-7.375 7.313 0 4.032 3.308 7.312 7.375 7.312 4.068 0 7.375-3.28 7.375-7.312 0-1.353-.396-2.604-1.045-3.691l4.67-4.631a20.267 20.267 0 0 0 11.125 4.572v7.665c-3.173.818-5.531 3.657-5.531 7.053 0 4.033 3.308 7.313 7.375 7.313s7.375-3.28 7.375-7.313c0-3.396-2.358-6.235-5.531-7.052ZM23.969 62.157c-2.034 0-3.688-1.64-3.688-3.656s1.654-3.656 3.688-3.656c2.033 0 3.687 1.64 3.687 3.656s-1.654 3.656-3.687 3.656ZM35.03 85.922c-2.033 0-3.687-1.64-3.687-3.656 0-2.017 1.654-3.657 3.687-3.657 2.034 0 3.688 1.64 3.688 3.657 0 2.016-1.654 3.656-3.688 3.656ZM59 96.89c-2.034 0-3.688-1.64-3.688-3.657 0-2.016 1.654-3.656 3.688-3.656 2.034 0 3.688 1.64 3.688 3.656 0 2.017-1.654 3.657-3.688 3.657Z" fill="#A1A1A1"/><path d="M64.531 45.703h-3.687v3.656h3.687v-3.656ZM53.469 63.984H49.78v3.657h3.688v-3.657ZM60.844 69.469h-3.688v3.656h3.688v-3.656ZM47.938 56.672H44.25v3.656h3.688v-3.656ZM71.906 53.016H68.22v3.656h3.687v-3.656Z" fill="#A1A1A1"/><path d="M59 0C26.467 0 0 26.243 0 58.5 0 90.757 26.467 117 59 117s59-26.243 59-58.5C118 26.243 91.533 0 59 0Zm0 113.344c-30.5 0-55.313-24.603-55.313-54.844C3.688 28.26 28.502 3.656 59 3.656c30.5 0 55.312 24.603 55.312 54.844 0 30.24-24.813 54.844-55.312 54.844Z" fill="#F5731C"/><path d="M59 7.313C30.534 7.313 7.375 30.276 7.375 58.5c0 28.224 23.16 51.188 51.625 51.188 28.466 0 51.625-22.964 51.625-51.188 0-28.224-23.16-51.188-51.625-51.188ZM106.938 58.5c0 11.133-3.891 21.374-10.379 29.484L29.264 21.259A47.953 47.953 0 0 1 59 10.97c26.434 0 47.938 21.323 47.938 47.531ZM91.546 93.357 23.847 26.23a48.08 48.08 0 0 1 2.607-2.585L94.153 90.77a48.08 48.08 0 0 1-2.607 2.585v.002ZM11.062 58.5c0-11.133 3.89-21.374 10.379-29.484l67.295 66.725A47.952 47.952 0 0 1 59 106.03c-26.434 0-47.938-21.323-47.938-47.531Z" fill="#F5731C"/><path d="M75.594 20.11h-3.688v3.656h3.688v-3.657ZM46.094 91.406h-3.688v3.656h3.688v-3.656ZM46.094 18.281h-3.688v3.657h3.688V18.28ZM97.719 71.297H94.03v3.656h3.688v-3.656ZM23.969 42.047H20.28v3.656h3.688v-3.656Z" fill="#A1A1A1"/></g><defs><clipPath id="clip0_386_855"><path fill="#fff" d="M0 0h118v117H0z"/></clipPath></defs></svg>