<svg width="69" height="74" fill="none" xmlns="http://www.w3.org/2000/svg"><circle cx="26.489" cy="26" r="26" fill="#E7EFFA"/><path d="M40.111 27.781c0-.422-.166-.828-.462-1.127a1.569 1.569 0 0 0-2.23 0 1.602 1.602 0 0 0-.462 1.127v1.594c0 1.265.366 2.445.994 3.436a9.456 9.456 0 0 0-5.256 3.372 9.63 9.63 0 0 0-2.047 5.942h-1.577a4.706 4.706 0 0 1-3.345-1.4 4.807 4.807 0 0 1-1.386-3.381v-6.375c0-.423-.166-.828-.462-1.127a1.569 1.569 0 0 0-2.23 0 1.602 1.602 0 0 0-.462 1.127v6.375c0 2.113.83 4.14 2.31 5.634a7.845 7.845 0 0 0 5.575 2.334h1.577v4.782h-11.04c-.418 0-.819.168-1.115.466a1.602 1.602 0 0 0 0 2.255 1.57 1.57 0 0 0 1.115.466h11.04v4.782h-1.577c-2.091 0-4.097.84-5.576 2.334a8.012 8.012 0 0 0-2.31 5.634v6.375c0 .423.167.828.463 1.127a1.569 1.569 0 0 0 2.23 0c.296-.299.462-.704.462-1.127v-6.375c0-1.268.498-2.484 1.386-3.38a4.706 4.706 0 0 1 3.345-1.401h1.577c0 3.382 1.33 6.624 3.696 9.016A12.55 12.55 0 0 0 43.266 74a12.55 12.55 0 0 0 8.921-3.734 12.818 12.818 0 0 0 3.696-9.016h1.577c1.255 0 2.458.504 3.346 1.4a4.807 4.807 0 0 1 1.385 3.381v6.375c0 .423.167.828.462 1.127a1.569 1.569 0 0 0 2.23 0c.297-.299.463-.704.463-1.127v-6.375c0-2.113-.831-4.14-2.31-5.635a7.844 7.844 0 0 0-5.576-2.334h-1.577v-4.78h11.04c.418 0 .82-.169 1.115-.467a1.603 1.603 0 0 0 0-2.255 1.57 1.57 0 0 0-1.115-.466h-11.04v-4.782h1.577c2.091 0 4.097-.84 5.576-2.334a8.011 8.011 0 0 0 2.31-5.634v-6.375c0-.423-.166-.828-.462-1.127a1.569 1.569 0 0 0-2.23 0 1.603 1.603 0 0 0-.463 1.127v6.375a4.807 4.807 0 0 1-1.385 3.38 4.706 4.706 0 0 1-3.346 1.401h-1.577a9.63 9.63 0 0 0-2.047-5.942 9.456 9.456 0 0 0-5.255-3.372 6.36 6.36 0 0 0 .993-3.436v-1.594c0-.422-.166-.828-.462-1.127a1.569 1.569 0 0 0-2.23 0 1.602 1.602 0 0 0-.462 1.127v1.594c0 .845-.332 1.656-.924 2.254a3.137 3.137 0 0 1-2.23.933 3.138 3.138 0 0 1-2.23-.933 3.205 3.205 0 0 1-.925-2.254v-1.594Zm12.617 14.344V61.25a9.614 9.614 0 0 1-2.771 6.762 9.413 9.413 0 0 1-6.691 2.8 9.413 9.413 0 0 1-6.692-2.8 9.614 9.614 0 0 1-2.771-6.762V42.125c0-1.69.664-3.312 1.848-4.508a6.275 6.275 0 0 1 4.46-1.867h6.309c1.673 0 3.278.672 4.46 1.867a6.409 6.409 0 0 1 1.848 4.508Z" fill="#5189CC"/></svg>