<svg width="26" height="27" viewBox="0 0 26 27" fill="none" xmlns="http://www.w3.org/2000/svg">
<path d="M8.66834 13.2605C8.66834 10.8674 10.6078 8.92681 13.001 8.92681C15.3941 8.92681 17.3347 10.8674 17.3347 13.2605C17.3347 15.6536 15.3941 17.5942 13.001 17.5942C10.6078 17.5942 8.66834 15.6536 8.66834 13.2605ZM6.32561 13.2605C6.32561 16.9473 9.31414 19.9359 13.001 19.9359C16.6878 19.9359 19.6763 16.9473 19.6763 13.2605C19.6763 9.57366 16.6878 6.58513 13.001 6.58513C9.31414 6.58513 6.32561 9.57366 6.32561 13.2605ZM18.3805 6.32051C18.3805 7.18158 19.0788 7.88093 19.941 7.88093C20.802 7.88093 21.5014 7.18158 21.5014 6.32051C21.5014 5.45945 20.8031 4.76114 19.941 4.76114C19.0788 4.76114 18.3805 5.45945 18.3805 6.32051ZM7.74847 23.8422C6.48103 23.7844 5.79217 23.5733 5.33434 23.3948C4.72739 23.1586 4.29476 22.8771 3.83902 22.4225C3.38434 21.9678 3.10187 21.5351 2.86665 20.9282C2.68813 20.4704 2.47707 19.7815 2.41931 18.5141C2.35631 17.1437 2.34371 16.7321 2.34371 13.2605C2.34371 9.78893 2.35736 9.37835 2.41931 8.00694C2.47707 6.7395 2.68918 6.05169 2.86665 5.59281C3.10292 4.98586 3.38434 4.55323 3.83902 4.09749C4.29371 3.64281 4.72634 3.36034 5.33434 3.12512C5.79217 2.9466 6.48103 2.73554 7.74847 2.67778C9.11883 2.61478 9.53046 2.60218 13.001 2.60218C16.4725 2.60218 16.8831 2.61583 18.2545 2.67778C19.522 2.73554 20.2098 2.94765 20.6687 3.12512C21.2756 3.36034 21.7082 3.64281 22.164 4.09749C22.6187 4.55218 22.9001 4.98586 23.1364 5.59281C23.3149 6.05064 23.5259 6.7395 23.5837 8.00694C23.6467 9.37835 23.6593 9.78893 23.6593 13.2605C23.6593 16.731 23.6467 17.1426 23.5837 18.5141C23.5259 19.7815 23.3138 20.4704 23.1364 20.9282C22.9001 21.5351 22.6187 21.9678 22.164 22.4225C21.7093 22.8771 21.2756 23.1586 20.6687 23.3948C20.2108 23.5733 19.522 23.7844 18.2545 23.8422C16.8842 23.9052 16.4725 23.9178 13.001 23.9178C9.53046 23.9178 9.11883 23.9052 7.74847 23.8422ZM7.64136 0.339254C6.25736 0.402259 5.31229 0.621726 4.48587 0.943051C3.63111 1.27488 2.90655 1.72011 2.18304 2.44257C1.46059 3.16502 1.01535 3.88958 0.683529 4.74539C0.362204 5.57181 0.142737 6.51688 0.0797326 7.90089C0.0156777 9.28699 0.000976562 9.73013 0.000976562 13.2605C0.000976562 16.7909 0.0156777 17.234 0.0797326 18.6201C0.142737 20.0041 0.362204 20.9492 0.683529 21.7756C1.01535 22.6304 1.45954 23.356 2.18304 24.0784C2.9055 24.8009 3.63006 25.2451 4.48587 25.5779C5.31334 25.8993 6.25736 26.1187 7.64136 26.1817C9.02852 26.2447 9.4706 26.2605 13.001 26.2605C16.5324 26.2605 16.9745 26.2458 18.3606 26.1817C19.7446 26.1187 20.6897 25.8993 21.5161 25.5779C22.3708 25.2451 23.0954 24.8009 23.8189 24.0784C24.5414 23.356 24.9855 22.6304 25.3184 21.7756C25.6397 20.9492 25.8603 20.0041 25.9222 18.6201C25.9852 17.233 25.9999 16.7909 25.9999 13.2605C25.9999 9.73013 25.9852 9.28699 25.9222 7.90089C25.8592 6.51688 25.6397 5.57181 25.3184 4.74539C24.9855 3.89063 24.5414 3.16607 23.8189 2.44257C23.0965 1.72011 22.3708 1.27488 21.5171 0.943051C20.6897 0.621726 19.7446 0.401209 18.3616 0.339254C16.9755 0.276249 16.5324 0.260498 13.002 0.260498C9.4706 0.260498 9.02852 0.275199 7.64136 0.339254Z" fill="black"></path>
</svg>
