<svg width="66" height="70" fill="none" xmlns="http://www.w3.org/2000/svg"><path d="M58.535 31.654h-6.802V27.42a4.277 4.277 0 0 0-4.278-4.274H44.16v-3.141a4.591 4.591 0 0 0-4.589-4.584h-2.416V10.26c0-.58.473-1.051 1.067-1.051h4.764c2.443 0 4.535-1.807 4.778-4.126C48.048 2.332 45.889 0 43.176 0H23.04a4.602 4.602 0 0 0-4.602 4.894c.148 2.426 2.24 4.314 4.777 4.314h4.792c.58 0 1.052.471 1.052 1.051v5.15h-2.415a4.591 4.591 0 0 0-4.59 4.583v3.142H18.76a4.277 4.277 0 0 0-4.278 4.273v30.48h-1.228a3.408 3.408 0 0 1-3.415-3.41V28.054a6.235 6.235 0 0 0-6.235-6.228h-2.2C.62 21.826 0 22.459 0 23.228a1.41 1.41 0 0 0 1.404 1.402h2.2a3.408 3.408 0 0 1 3.414 3.41v26.437a6.235 6.235 0 0 0 6.236 6.228h1.228v2.589a5.72 5.72 0 0 0 5.71 5.716H46.01a5.72 5.72 0 0 0 5.71-5.716V60.49h6.802c4.116 0 7.477-3.344 7.477-7.469V39.122c.014-4.112-3.347-7.468-7.464-7.468ZM27.992 6.39h-4.791c-1.026 0-1.903-.755-1.957-1.672a1.769 1.769 0 0 1 1.781-1.9h20.138c1.039 0 1.89.89 1.781 1.981-.094.89-.958 1.591-1.97 1.591h-4.778c-2.146 0-3.887 1.74-3.887 3.87v5.149h-2.457v-5.15c.027-2.13-1.714-3.869-3.86-3.869Zm-3.117 13.616c0-.97.796-1.766 1.768-1.766h12.93c.971 0 1.767.795 1.767 1.766v3.141H24.874v-3.141ZM48.912 63.32a2.901 2.901 0 0 1-2.888 2.898H20.19a2.893 2.893 0 0 1-2.888-2.898v-35.9a1.46 1.46 0 0 1 1.457-1.456h28.695c.81 0 1.457.647 1.457 1.456v35.9Zm14.28-10.273a4.663 4.663 0 0 1-4.657 4.651h-6.802V34.471h6.802a4.663 4.663 0 0 1 4.657 4.651v13.926Z" fill="#F5731C"/><path d="M44.684 45.69h-4.242c-.139-1.689-.54-3.24-1.123-4.57l4.145-4.14a1.445 1.445 0 0 0 0-2.05 1.449 1.449 0 0 0-2.052 0l-3.673 3.657c-1.248-1.468-2.842-2.34-4.602-2.34-1.761 0-3.355.872-4.603 2.34l-3.66-3.656a1.448 1.448 0 0 0-2.051 0 1.445 1.445 0 0 0 0 2.05l4.145 4.14c-.596 1.343-.985 2.894-1.123 4.57h-4.256a1.44 1.44 0 0 0-1.441 1.44c0 .79.651 1.44 1.441 1.44h4.256c.055.679.152 1.343.291 1.967l-3.313 3.31c-.277.276-.43.636-.43 1.024v3.434c0 .804.652 1.44 1.442 1.44.79 0 1.441-.65 1.441-1.44v-2.838l1.886-1.884c1.33 2.7 3.48 4.432 5.96 4.432 2.482 0 4.63-1.731 5.962-4.432l1.885 1.884v2.838c0 .804.651 1.44 1.441 1.44s1.442-.65 1.442-1.44v-3.434c0-.388-.152-.748-.43-1.025l-3.313-3.31c.139-.636.236-1.287.291-1.966h4.242a1.44 1.44 0 0 0 1.442-1.44c0-.79-.61-1.44-1.4-1.44Zm-11.547 9.445c-5.85 0-5.892-15.994 0-15.994 5.947 0 5.808 15.994 0 15.994Z" fill="#F5731C"/></svg>