<svg width="69" height="59" fill="none" xmlns="http://www.w3.org/2000/svg"><path fill-rule="evenodd" clip-rule="evenodd" d="M54.611 45.727a29.362 29.362 0 0 0 4.86-16.227c0-4.622-1.062-8.996-2.957-12.89h9.553a.352.352 0 0 1 .352.35v10.32c0 11.139-7.516 16.37-11.808 18.447Zm-2.393 3.148c-.07.006-.142.008-.213.008a2.375 2.375 0 0 1-.774-.123c-2.619-.862-15.75-6.012-15.75-21.48V16.96a2.461 2.461 0 0 1 2.461-2.46H55.38c.406.686.784 1.39 1.135 2.11H37.942a.351.351 0 0 0-.351.35v10.32c0 14.027 11.918 18.685 14.308 19.476a.23.23 0 0 0 .211 0 21.01 21.01 0 0 0 2.501-1.029 29.615 29.615 0 0 1-2.393 3.148Zm0 0C46.81 55.078 38.848 59 29.972 59 13.679 59 .472 45.792.472 29.5S13.679 0 29.972 0c10.815 0 20.271 5.82 25.407 14.5h10.688a2.46 2.46 0 0 1 2.461 2.46v10.32c0 15.468-13.13 20.618-15.767 21.48-.176.06-.358.099-.543.114Zm6.158-18.512a1.055 1.055 0 0 0-.746-1.8h-4.57v-4.57a1.055 1.055 0 1 0-2.11 0v4.57h-4.57a1.055 1.055 0 1 0 0 2.109h4.57v4.57a1.055 1.055 0 1 0 2.11 0v-4.57h4.57c.28 0 .548-.111.746-.309Z" fill="#5189CC"/></svg>