<svg width="42" height="41" fill="none" xmlns="http://www.w3.org/2000/svg"><path d="M33.166 29.96c-1.31-1.279-1.589-3.192-.875-4.861l.037-.084c.698-1.664 2.29-2.807 4.133-2.807h.14c1.117 0 1.899-.763 1.899-1.708s-.782-1.708-1.75-1.708h-.297c-1.843 0-3.427-1.143-4.125-2.809l-.037-.084c-.714-1.668-.436-3.582.875-4.861l.208-.204a1.672 1.672 0 0 0 0-2.416 1.787 1.787 0 0 0-2.475 0l-.207.204c-1.311 1.28-3.271 1.551-4.981.854l-.086-.036c-1.704-.68-2.875-2.234-2.875-4.033v-.138c0-1.089-.782-1.852-1.75-1.852s-1.75.763-1.75 1.708v.062c0 1.872-1.155 3.56-2.928 4.276l-.01.005a4.85 4.85 0 0 1-2.74.262 4.78 4.78 0 0 1-2.428-1.267L11.1 8.42 7.695 5.096A1.729 1.729 0 0 0 5.28 7.57l29.025 28.334a1.729 1.729 0 0 0 2.415-2.474l-3.346-3.266-.208-.203ZM21 17.084c0-.675.205-1.336.59-1.898.384-.562.931-1 1.57-1.258a3.58 3.58 0 0 1 2.023-.195 3.527 3.527 0 0 1 1.792.936c.49.477.823 1.086.958 1.749a3.34 3.34 0 0 1-.2 1.974 3.436 3.436 0 0 1-1.288 1.533 3.561 3.561 0 0 1-1.945.576c-.45 0-.877-.09-1.274-.242l-1.98-1.933A3.344 3.344 0 0 1 21 17.083Zm-7 5.125c-.464 0-.91-.18-1.237-.5a1.688 1.688 0 0 1-.513-1.208c.007-.4.158-.784.427-1.085l-3.173-3.097a4.542 4.542 0 0 1-1.694 1.803 4.692 4.692 0 0 1-2.411.67h-.002c-1.115 0-1.897.764-1.897 1.71 0 .944.782 1.707 1.75 1.707h.119c.921 0 1.822.267 2.588.767a4.57 4.57 0 0 1 1.715 2.042l.037.084c.355.839.448 1.762.267 2.652a4.562 4.562 0 0 1-1.287 2.351l-.063.062c-.328.32-.513.755-.513 1.208 0 .453.185.887.513 1.207.328.32.773.5 1.237.5.464 0 .91-.18 1.237-.5l.063-.061a4.742 4.742 0 0 1 2.409-1.257 4.812 4.812 0 0 1 2.717.261l.25.102a4.363 4.363 0 0 1 1.972 1.578c.482.704.74 1.533.739 2.38v.146c0 1.09.782 1.853 1.75 1.853s1.75-.765 1.75-1.708v-.29c0-1.668.994-3.166 2.525-3.871L15.11 21.79c-.307.264-.7.413-1.11.418Z" fill="#fff"/></svg>