<svg width="75" height="82" fill="none" xmlns="http://www.w3.org/2000/svg"><circle cx="26.989" cy="26" r="26" fill="#E7EFFA"/><path d="M59.431 49.47c0 9.367-7.594 16.961-16.961 16.961M59.43 49.47c0-9.367-7.594-16.961-16.961-16.961m16.961 16.96H73M42.47 66.432c-9.367 0-16.961-7.594-16.961-16.961m16.96 16.961V80M25.51 49.47c0-9.367 7.594-16.961 16.96-16.961m-16.96 16.96h-13.57m30.53-16.96v-13.57m-3.391 0h6.784m8.603 18.536 9.593-9.593m-2.398-2.399 4.796 4.797M73 46.078v6.784M54.46 61.465l9.597 9.593m2.398-2.398-4.796 4.796M45.862 80h-6.784m-8.6-18.535-9.596 9.593m2.398 2.398-4.793-4.796M11.94 52.862v-6.784m18.535-8.603-9.593-9.593m-2.399 2.398 4.797-4.793" stroke="#5189CC" stroke-width="3" stroke-linecap="round" stroke-linejoin="round"/></svg>