<svg width="631" height="365" fill="none" xmlns="http://www.w3.org/2000/svg"><path d="M106.35 352.4h7.9v-1.65h-7.9v-4.625h8.4v-1.675H104.3v15h1.75c4.225 0 7.125-.15 10.575-.75l-.2-1.65c-3.3.55-6.1.725-10.075.725V352.4Zm17.925-.975h-3.7v-9h-2.05v22.4h2.05V353.15h3.7v-1.725Zm18.098 11.475h-10.275V360h10.275v2.9Zm0-4.5h-10.275v-2.85h-2.025v9h14.35v-9h-2.05v2.85Zm-10.3-6.25c-2.225 0-3.825-1.45-3.825-3.5s1.6-3.475 3.825-3.475 3.825 1.425 3.825 3.475-1.6 3.5-3.825 3.5Zm10.275-9.7v5.325h-4.575c-.425-2.6-2.675-4.3-5.7-4.3-3.35 0-5.775 2.1-5.775 5.175 0 3.1 2.425 5.2 5.775 5.2 3.075 0 5.325-1.75 5.725-4.4h4.55v5.025h2.075V342.45h-2.075Zm12.748 5.8h4.15v-1.7h-4.125v-3.325h-1.975v3.325h-4.15v1.7h4.15v1.075c0 3.675-1.725 7.6-4.75 9.4l1.2 1.525c2.2-1.325 3.775-3.825 4.55-6.675.825 2.7 2.425 4.975 4.6 6.2l1.175-1.55c-3.025-1.625-4.825-5.325-4.825-8.9v-1.075Zm6.05 3.025h-3.425v1.7h3.425v10.7h1.95V342.95h-1.95v8.325Zm4.5-8.85v22.4h1.975v-22.4h-1.975ZM246.275 344.375h-2.025v4.025c0 4.25-2.725 8.55-6.025 10.125l1.25 1.675c2.625-1.35 4.775-4.15 5.8-7.525 1.075 3.2 3.225 5.85 5.775 7.1l1.225-1.65c-3.325-1.5-6-5.625-6-9.725v-4.025Zm8.35-1.95V364.9h2.05v-22.475h-2.05Zm9.773 9.975h8.025v-1.65h-8.025v-4.625h8.85v-1.675h-10.875v15h1.775c4.275 0 7.275-.15 10.775-.75l-.2-1.675c-3.35.6-6.25.75-10.325.75V352.4Zm12.9-9.975v22.4h2.05v-22.4h-2.05Zm7.648 1.125v1.65h7.875c-.075.825-.25 1.625-.55 2.35l-8.45.4.35 1.675 7.275-.55c-1.4 2-3.825 3.6-7.475 4.65l.8 1.65c6.925-2.075 10.2-6.15 10.2-11.825h-10.025Zm14 19.325h-10.1v-2.725h10.1v2.725Zm0-4.35h-10.1v-2.675h-2.025v8.7h14.15v-8.7h-2.025v2.675Zm5.35-10.725h-3.325v-5.375h-2.05V354.8h2.05v-5.3h3.325v-1.7Zm14.348 3.475h-3.525c.625-1.975.875-4.1.875-6.2h-8.575v1.65h6.6c-.075 1.225-.25 2.4-.575 3.575l-7.125.475.275 1.75 6.3-.625c-1.1 2.625-3.15 4.975-6.575 6.825l1.175 1.475c3.575-2 5.75-4.5 7-7.25h4.15v10.75h1.925V343h-1.925v8.275Zm4.65-8.875v22.425h1.95V342.4h-1.95Zm11.523 15.575c-2.15 0-3.65-2.35-3.65-6 0-3.625 1.5-5.975 3.65-5.975 2.125 0 3.625 2.35 3.625 5.975 0 3.65-1.5 6-3.625 6Zm10.425-15.55v8.55h-4.875c-.325-4.2-2.525-6.825-5.55-6.825-3.275 0-5.6 3.05-5.6 7.825s2.325 7.825 5.6 7.825c3.125 0 5.35-2.75 5.55-7.15h4.875v12.25h2.05v-22.475h-2.05Z" fill="#000"/><path d="M437.28 70.48v-4.2l10.8-10.2c.853-.773 1.48-1.467 1.88-2.08.4-.613.667-1.173.8-1.68.16-.507.24-.973.24-1.4 0-1.12-.387-1.973-1.16-2.56-.747-.613-1.853-.92-3.32-.92a7.94 7.94 0 0 0-3.28.68c-.987.453-1.827 1.16-2.52 2.12L436 47.2c1.067-1.6 2.56-2.867 4.48-3.8 1.92-.933 4.133-1.4 6.64-1.4 2.08 0 3.893.347 5.44 1.04 1.573.667 2.787 1.613 3.64 2.84.88 1.227 1.32 2.693 1.32 4.4 0 .907-.12 1.813-.36 2.72-.213.88-.667 1.813-1.36 2.8-.667.987-1.653 2.093-2.96 3.32l-8.96 8.44-1.24-2.36h15.8v5.28h-21.16ZM472.514 70.96c-2.294 0-4.347-.56-6.16-1.68-1.814-1.147-3.24-2.8-4.28-4.96s-1.56-4.773-1.56-7.84.52-5.68 1.56-7.84 2.466-3.8 4.28-4.92c1.813-1.147 3.866-1.72 6.16-1.72 2.32 0 4.373.573 6.16 1.72 1.813 1.12 3.24 2.76 4.28 4.92s1.56 4.773 1.56 7.84-.52 5.68-1.56 7.84-2.467 3.813-4.28 4.96c-1.787 1.12-3.84 1.68-6.16 1.68Zm0-5.48c1.093 0 2.04-.307 2.84-.92.826-.613 1.466-1.587 1.92-2.92.48-1.333.72-3.053.72-5.16s-.24-3.827-.72-5.16c-.454-1.333-1.094-2.307-1.92-2.92-.8-.613-1.747-.92-2.84-.92-1.067 0-2.014.307-2.84.92-.8.613-1.44 1.587-1.92 2.92-.454 1.333-.68 3.053-.68 5.16s.226 3.827.68 5.16c.48 1.333 1.12 2.307 1.92 2.92.826.613 1.773.92 2.84.92ZM501.619 60.44c-.933 0-1.76-.173-2.48-.52a11.005 11.005 0 0 1-1.96-1.2 34.887 34.887 0 0 0-1.64-1.2c-.506-.373-1.026-.56-1.56-.56-.72 0-1.306.28-1.76.84-.426.56-.666 1.32-.72 2.28h-3.88c.054-2.533.627-4.44 1.72-5.72 1.12-1.28 2.547-1.92 4.28-1.92.934 0 1.76.187 2.48.56a9.78 9.78 0 0 1 1.92 1.2c.587.427 1.134.827 1.64 1.2.507.347 1.027.52 1.56.52.747 0 1.334-.28 1.76-.84.454-.56.694-1.32.72-2.28h3.92c-.053 2.507-.64 4.413-1.76 5.72-1.093 1.28-2.506 1.92-4.24 1.92ZM518.823 70.96c-1.946 0-3.88-.253-5.8-.76-1.92-.533-3.546-1.28-4.88-2.24l2.52-4.96c1.067.773 2.307 1.387 3.72 1.84 1.414.453 2.84.68 4.28.68 1.627 0 2.907-.32 3.84-.96.934-.64 1.4-1.52 1.4-2.64 0-1.067-.413-1.907-1.24-2.52-.826-.613-2.16-.92-4-.92h-2.96V54.2l7.8-8.84.72 2.32h-14.68v-5.2h19.6v4.2l-7.76 8.84-3.28-1.88h1.88c3.44 0 6.04.773 7.8 2.32 1.76 1.547 2.64 3.533 2.64 5.96 0 1.573-.413 3.053-1.24 4.44-.826 1.36-2.093 2.467-3.8 3.32-1.706.853-3.893 1.28-6.56 1.28ZM544.815 70.96c-2.293 0-4.346-.56-6.16-1.68-1.813-1.147-3.24-2.8-4.28-4.96s-1.56-4.773-1.56-7.84.52-5.68 1.56-7.84 2.467-3.8 4.28-4.92c1.814-1.147 3.867-1.72 6.16-1.72 2.32 0 4.374.573 6.16 1.72 1.814 1.12 3.24 2.76 4.28 4.92s1.56 4.773 1.56 7.84-.52 5.68-1.56 7.84-2.466 3.813-4.28 4.96c-1.786 1.12-3.84 1.68-6.16 1.68Zm0-5.48c1.094 0 2.04-.307 2.84-.92.827-.613 1.467-1.587 1.92-2.92.48-1.333.72-3.053.72-5.16s-.24-3.827-.72-5.16c-.453-1.333-1.093-2.307-1.92-2.92-.8-.613-1.746-.92-2.84-.92-1.066 0-2.013.307-2.84.92-.8.613-1.44 1.587-1.92 2.92-.453 1.333-.68 3.053-.68 5.16s.227 3.827.68 5.16c.48 1.333 1.12 2.307 1.92 2.92.827.613 1.774.92 2.84.92ZM563.404 70.48l19.12-28h4.76l-19.12 28h-4.76Zm2.44-12.88c-1.36 0-2.56-.307-3.6-.92-1.04-.64-1.867-1.533-2.48-2.68-.587-1.173-.88-2.547-.88-4.12s.293-2.933.88-4.08c.613-1.147 1.44-2.04 2.48-2.68 1.04-.64 2.24-.96 3.6-.96 1.36 0 2.56.32 3.6.96 1.04.64 1.853 1.533 2.44 2.68.586 1.147.88 2.507.88 4.08s-.294 2.947-.88 4.12c-.587 1.147-1.4 2.04-2.44 2.68-1.04.613-2.24.92-3.6.92Zm0-3.28c.88 0 1.586-.36 2.12-1.08.533-.747.8-1.867.8-3.36 0-1.493-.267-2.6-.8-3.32-.534-.747-1.24-1.12-2.12-1.12-.854 0-1.56.373-2.12 1.12-.534.72-.8 1.827-.8 3.32 0 1.467.266 2.573.8 3.32.56.747 1.266 1.12 2.12 1.12Zm19 16.48c-1.334 0-2.534-.307-3.6-.92-1.04-.64-1.854-1.533-2.44-2.68-.587-1.173-.88-2.547-.88-4.12s.293-2.933.88-4.08c.586-1.147 1.4-2.04 2.44-2.68 1.066-.64 2.266-.96 3.6-.96 1.386 0 2.6.32 3.64.96 1.04.64 1.853 1.533 2.44 2.68.586 1.147.88 2.507.88 4.08s-.294 2.947-.88 4.12c-.587 1.147-1.4 2.04-2.44 2.68-1.04.613-2.254.92-3.64.92Zm0-3.28c.88 0 1.586-.36 2.12-1.08.533-.747.8-1.867.8-3.36 0-1.467-.267-2.573-.8-3.32-.534-.747-1.24-1.12-2.12-1.12-.854 0-1.56.373-2.12 1.12-.534.72-.8 1.827-.8 3.32 0 1.493.266 2.613.8 3.36.56.72 1.266 1.08 2.12 1.08Z" fill="#F5731C"/><path fill="#D9D9D9" d="M87 0h100v306H87z"/><path fill="#F5731C" d="M244 85h100v221H244z"/><path stroke="silver" d="M27 305.5h377"/><path stroke="silver" stroke-width="2" stroke-dasharray="4 4" d="M27 85.48h565"/><path d="M504.295 99.98h20.25v27h16.335l-26.46 26.46-26.46-26.46h16.335v-27Z" fill="#F5731C"/></svg>