<svg width="183" height="41" fill="none" xmlns="http://www.w3.org/2000/svg"><circle cx="43.801" cy="24.264" r="5.672" fill="#F5731C"/><path fill-rule="evenodd" clip-rule="evenodd" d="M43.8 12.053c-6.743 0-12.21 5.467-12.21 12.21 0 6.744 5.467 12.211 12.21 12.211 1.266 0 2.482-.191 3.624-.546a2.127 2.127 0 0 1 1.26 4.063 16.46 16.46 0 0 1-4.883.737c-9.094 0-16.465-7.371-16.465-16.464 0-9.093 7.371-16.465 16.465-16.465 1.697 0 3.338.258 4.884.737a2.127 2.127 0 1 1-1.26 4.063 12.207 12.207 0 0 0-3.624-.546Z" fill="#183C8D"/><path fill-rule="evenodd" clip-rule="evenodd" d="M24.264 12.053c-6.744 0-12.211 5.467-12.211 12.21 0 6.744 5.467 12.211 12.21 12.211 1.266 0 2.482-.191 3.624-.546a2.127 2.127 0 0 1 1.26 4.063 16.46 16.46 0 0 1-4.883.737c-9.094 0-16.465-7.371-16.465-16.464 0-9.093 7.371-16.465 16.465-16.465 1.697 0 3.338.258 4.884.737a2.127 2.127 0 1 1-1.26 4.063 12.207 12.207 0 0 0-3.625-.546Z" fill="#183C8D"/><path d="M26.08 18.889a5.672 5.672 0 1 0 0 10.75 18.512 18.512 0 0 1-.792-5.375c0-1.87.277-3.674.792-5.375Z" fill="#F5731C"/><path d="M5.044 26.046a19.546 19.546 0 0 1 .016-3.728L0 24.185l5.044 1.861ZM6.675 16.306a19.281 19.281 0 0 1 1.87-3.244L3.186 12.2l3.488 4.107ZM24.185 0l1.861 5.045a19.478 19.478 0 0 0-3.728.015L24.185 0ZM16.45 6.61 12.236 3.1l.92 5.378A19.269 19.269 0 0 1 16.45 6.61ZM84.251 36.522V13.083h3.78v23.439h-3.78ZM72.625 14.753h3.78v3.453c0 4.406 1.716 9.715 5.494 12.42l-2.645 2.454c-2.849-2.454-4.155-5.16-4.682-8.149-.782 2.99-2.374 5.695-5.613 8.15l-2.55-2.455c3.306-2.061 6.216-7.808 6.216-12.42v-3.453ZM96.041 24.158h8.809v-2.654h-8.808V17.64h8.808V14.88H92.262v16.415h2.29c4.725 0 7.664-.103 11.787-.67l-.343-2.706c-3.608.49-6.031.619-9.954.645v-4.407ZM108.258 36.496V13.109h3.809v23.387h-3.809ZM115.73 16.608v-2.706h12.113c0 6.571-3.522 10.772-12.027 12.962l-1.432-2.654c3.551-.876 5.899-2.036 7.417-3.505l-6.873.464-.515-2.628 8.992-.284c.2-.515.343-1.082.401-1.649h-8.076Z" fill="#183C8D"/><path fill-rule="evenodd" clip-rule="evenodd" d="M131.222 28.734h-9.679v-2.062h-3.751v9.824h3.751v-.521h9.651v.52h3.78v-9.823h-3.752v2.062Zm0 4.535h-9.679v-1.932h9.679v1.932Z" fill="#183C8D"/><path d="M134.974 19.59h3.115v2.784h-3.115v3.665h-3.78V13.083h3.78v6.508ZM149.571 21.865h2.72v-8.24h3.523v21.789h-3.523V24.57h-3.751c-1.403 2.834-3.866 5.334-7.875 7.421l-2.09-2.37c3.321-1.753 5.412-3.712 6.643-5.98l-6.071.568-.429-2.835 7.502-.36c.23-.85.373-1.753.459-2.706h-6.644v-2.732h10.28c0 2.242-.2 4.355-.744 6.288ZM157.223 13.083v23.361h3.579v-23.36h-3.579ZM179.22 13.083v8.37h-3.247v2.757h3.247v12.312H183V13.083h-3.78Z" fill="#183C8D"/><path fill-rule="evenodd" clip-rule="evenodd" d="M169.267 14.2c-2.083 0-3.599 1.12-4.496 2.73-.932 1.671-1.455 3.866-1.455 6.198 0 2.333.523 4.527 1.455 6.199.897 1.61 2.413 2.73 4.496 2.73 2.082 0 3.598-1.12 4.495-2.73.932-1.672 1.455-3.866 1.455-6.199 0-2.332-.523-4.527-1.455-6.198-.897-1.61-2.413-2.73-4.495-2.73Zm-2.551 8.928c0-1.88.429-3.498 1.036-4.587.641-1.15 1.042-1.365 1.515-1.365.472 0 .874.215 1.515 1.365.607 1.089 1.035 2.708 1.035 4.587 0 1.88-.428 3.499-1.035 4.588-.641 1.15-1.138 1.365-1.515 1.365-.378 0-.874-.215-1.515-1.365-.607-1.09-1.036-2.708-1.036-4.588Z" fill="#183C8D"/></svg>