<svg width="221" height="51" fill="none" xmlns="http://www.w3.org/2000/svg"><circle cx="54.333" cy="30.098" r="7.036" fill="#F5731C"/><path fill-rule="evenodd" clip-rule="evenodd" d="M54.332 14.951c-8.366 0-15.147 6.782-15.147 15.147s6.781 15.146 15.147 15.146c1.569 0 3.078-.237 4.495-.677a2.638 2.638 0 0 1 1.563 5.04 20.416 20.416 0 0 1-6.058.914c-11.28 0-20.424-9.144-20.424-20.423 0-11.28 9.144-20.424 20.424-20.424 2.105 0 4.14.32 6.058.915a2.638 2.638 0 0 1-1.563 5.04 15.142 15.142 0 0 0-4.495-.678Z" fill="#183C8D"/><path fill-rule="evenodd" clip-rule="evenodd" d="M30.097 14.951c-8.365 0-15.146 6.782-15.146 15.147s6.781 15.146 15.146 15.146c1.57 0 3.078-.237 4.495-.677a2.638 2.638 0 1 1 1.564 5.04 20.416 20.416 0 0 1-6.059.914c-11.28 0-20.423-9.144-20.423-20.423 0-11.28 9.144-20.424 20.423-20.424 2.106 0 4.141.32 6.059.915a2.638 2.638 0 0 1-1.564 5.04 15.143 15.143 0 0 0-4.495-.678Z" fill="#183C8D"/><path d="M32.35 23.43a7.036 7.036 0 1 0 0 13.335 22.963 22.963 0 0 1-.982-6.667c0-2.32.343-4.558.983-6.668Z" fill="#F5731C"/><path d="M6.257 32.308a24.244 24.244 0 0 1 .02-4.624L0 30l6.257 2.308ZM8.28 20.226a23.912 23.912 0 0 1 2.319-4.023l-6.646-1.07 4.327 5.093ZM30 0l2.309 6.257a24.164 24.164 0 0 0-4.625.02L30 0ZM20.405 8.2l-5.227-4.354 1.14 6.67A23.905 23.905 0 0 1 20.406 8.2ZM98.38 45.303V16.229h4.689v29.074H98.38ZM83.958 18.3h4.69v4.283c0 5.466 2.128 12.05 6.814 15.407l-3.28 3.044c-3.535-3.044-5.155-6.4-5.808-10.108-.971 3.708-2.945 7.064-6.963 10.108l-3.163-3.044c4.1-2.557 7.71-9.685 7.71-15.407V18.3ZM113.005 29.967h10.927v-3.293h-10.927V21.88h10.927v-3.42h-15.616V38.82h2.842c5.861 0 9.506-.128 14.621-.831l-.426-3.356c-4.476.607-7.482.767-12.348.799v-5.466ZM128.159 45.271v-29.01h4.724v29.01h-4.724ZM137.428 20.601v-3.356h15.025c0 8.15-4.369 13.361-14.919 16.078l-1.776-3.292c4.405-1.087 7.318-2.525 9.2-4.347l-8.525.575-.639-3.26 11.153-.352c.249-.64.427-1.343.498-2.046h-10.017Z" fill="#183C8D"/><path fill-rule="evenodd" clip-rule="evenodd" d="M156.645 35.643h-12.006v-2.558h-4.654v12.186h4.654v-.646h11.97v.646h4.689V33.085h-4.653v2.558Zm0 5.625h-12.006v-2.397h12.006v2.397Z" fill="#183C8D"/><path d="M161.298 24.301h3.865v3.452h-3.865V32.3h-4.689V16.23h4.689v8.072ZM179.405 27.122h3.374V16.9h4.37v27.028h-4.37v-13.45h-4.653c-1.74 3.516-4.795 6.617-9.768 9.206l-2.593-2.94c4.12-2.174 6.713-4.603 8.241-7.416l-7.531.703-.533-3.516 9.307-.448c.284-1.055.462-2.174.568-3.356h-8.241v-3.388h12.752c0 2.78-.248 5.402-.923 7.799ZM188.897 16.229v28.978h4.44V16.229h-4.44ZM216.183 16.229v10.382h-4.028v3.42h4.028v15.272h4.689V16.229h-4.689Z" fill="#183C8D"/><path fill-rule="evenodd" clip-rule="evenodd" d="M203.836 17.613c-2.583 0-4.464 1.39-5.577 3.387-1.155 2.073-1.804 4.796-1.804 7.69 0 2.893.649 5.615 1.804 7.688 1.113 1.997 2.994 3.387 5.577 3.387 2.583 0 4.464-1.39 5.577-3.387 1.155-2.073 1.804-4.795 1.804-7.689 0-2.893-.649-5.616-1.804-7.689-1.113-1.997-2.994-3.387-5.577-3.387Zm-3.163 11.076c0-2.331.531-4.34 1.284-5.69.795-1.427 1.293-1.694 1.879-1.694.586 0 1.084.267 1.879 1.694.753 1.35 1.285 3.359 1.285 5.69 0 2.332-.532 4.34-1.285 5.69-.795 1.428-1.41 1.694-1.879 1.694-.468 0-1.084-.266-1.879-1.693-.753-1.351-1.284-3.36-1.284-5.69Z" fill="#183C8D"/></svg>