<svg width="140" height="140" viewBox="0 0 140 140" fill="none" xmlns="http://www.w3.org/2000/svg">
<path d="M131.25 14.9363L125.064 8.75L8.75 125.064L14.9363 131.25L23.6863 122.5H113.75C116.07 122.497 118.293 121.574 119.933 119.933C121.574 118.293 122.497 116.07 122.5 113.75V23.6863L131.25 14.9363ZM113.75 113.75H32.4363L66.5306 79.6556L76.9388 90.0638C78.5796 91.7041 80.8048 92.6256 83.125 92.6256C85.4452 92.6256 87.6704 91.7041 89.3112 90.0638L96.25 83.125L113.75 100.612V113.75ZM113.75 88.235L102.436 76.9213C100.795 75.2809 98.5702 74.3594 96.25 74.3594C93.9298 74.3594 91.7046 75.2809 90.0638 76.9213L83.125 83.86L72.7256 73.4606L113.75 32.4363V88.235ZM26.25 96.25V83.125L48.125 61.2631L54.1319 67.2744L60.3269 61.0794L54.3112 55.0638C52.6704 53.4234 50.4452 52.5019 48.125 52.5019C45.8048 52.5019 43.5796 53.4234 41.9388 55.0638L26.25 70.7525V26.25H96.25V17.5H26.25C23.9301 17.5023 21.7058 18.4249 20.0654 20.0654C18.4249 21.7058 17.5023 23.9301 17.5 26.25V96.25H26.25Z" fill="white"></path>
</svg>
