<svg width="25" height="25" fill="none" xmlns="http://www.w3.org/2000/svg"><g clip-path="url('#clip0_179_715')" fill="#F5731C"><path d="M5.716 11.995H3.659l5.757 9.346L24.22.78h-2.056L9.416 14.798l-3.7-2.803Z"/><path d="M20.518 21.34c0 .227-.184.412-.411.412H3.659a.412.412 0 0 1-.41-.411V4.893c-.001-.227.183-.411.41-.411h11.248l2.244-2.468H1.604a.823.823 0 0 0-.823.823v20.559c0 .455.369.823.823.823h20.559a.821.821 0 0 0 .822-.823V7.42l-2.467 3.427v10.494Z"/></g><defs><clipPath id="clip0_179_715"><path fill="#fff" d="M0 0h25v25H0z"/></clipPath></defs></svg>