<svg width="59" height="71" fill="none" xmlns="http://www.w3.org/2000/svg"><path d="M24.976.022V.04a1.772 1.772 0 0 0-.601 0c-.52.094-.689.29-.892.458a6.151 6.151 0 0 0-.576.554c-.379.406-.777.891-1.17 1.369-.391.48-.782.956-1.087 1.299a6.3 6.3 0 0 1-.31.323c-.116 0-.25-.024-.436-.047-.447-.062-1.038-.169-1.641-.276-.601-.107-1.21-.217-1.754-.276a6.08 6.08 0 0 0-.79-.045c-.258 0-.515-.027-.971.244-.457.271-.55.51-.684.739-.132.229-.242.46-.352.719-.22.513-.44 1.11-.65 1.7-.21.59-.415 1.172-.586 1.605a7.103 7.103 0 0 1-.186.423c-.142.041-.285.079-.43.112-.44.1-1.03.206-1.632.316-.6.109-1.214.223-1.746.358-.264.067-.51.137-.753.234-.244.097-.493.15-.83.562-.337.413-.342.672-.391.933a6.879 6.879 0 0 0-.098.797c-.034.562-.034 1.199-.037 1.829 0 .63 0 1.249-.02 1.716-.006.2-.024.341-.036.46-.093.07-.205.158-.366.265-.384.248-.909.557-1.439.873a28.9 28.9 0 0 0-1.515.953c-.22.148-.43.31-.63.485-.195.177-.41.314-.586.816-.178.503-.103.75-.064 1.013.04.262.105.513.181.782.152.54.362 1.14.57 1.729.204.592.41 1.174.546 1.617.06.192.098.334.125.448-.063.1-.146.227-.269.386-.276.368-.66.839-1.053 1.321-.39.483-.784.976-1.106 1.429a6.212 6.212 0 0 0-.43.676c-.125.234-.281.438-.281.97 0 .533.156.74.28.974.126.234.27.448.43.674.323.456.717.946 1.107 1.431.391.483.777.953 1.056 1.319.117.162.203.286.266.386-.035.15-.076.3-.122.448-.14.442-.342 1.027-.55 1.617-.207.59-.415 1.187-.569 1.727-.076.258-.137.52-.18.786-.04.264-.115.508.06 1.01.179.503.391.642.587.817.195.176.403.33.63.487.457.314.99.637 1.517.953.53.316 1.055.622 1.436.871.164.102.276.19.367.262.014.119.032.266.039.465.02.468.02 1.087.02 1.717 0 .627 0 1.259.039 1.821.017.282.043.54.095.802.049.26.054.522.39.933.338.413.587.468.831.565.245.097.489.171.753.239.532.134 1.148.248 1.746.358.601.11 1.19.216 1.632.316.186.042.32.08.43.112.051.107.112.241.186.423.112.276.246.667.378 1.03L6.403 63.645a1.356 1.356 0 0 0 .087 1.488 1.29 1.29 0 0 0 1.386.48L13.778 64l1.585 6.016c.069.254.209.482.404.655a1.29 1.29 0 0 0 1.44.191c.232-.116.425-.3.555-.527L23.85 59.6c.13.075.283.142.525.184.523.095.747-.03.994-.117.244-.087.479-.191.723-.316.494-.249 1.031-.562 1.564-.873.527-.314 1.048-.625 1.448-.841.169-.09.291-.152.396-.2.105.048.23.11.396.2.4.216.92.527 1.45.84.53.312 1.068.628 1.562.874.244.125.476.23.723.316.247.087.471.212.994.117a1.54 1.54 0 0 0 .52-.184l6.083 10.735c.13.227.323.41.555.527a1.29 1.29 0 0 0 1.44-.191c.195-.173.336-.4.404-.655l1.585-6.012 5.898 1.613c.25.068.517.058.763-.028.245-.086.46-.244.618-.455a1.35 1.35 0 0 0 .087-1.485L46.14 52.472c.134-.373.269-.769.383-1.05.074-.182.135-.316.186-.423.11-.033.244-.07.43-.112.44-.1 1.03-.204 1.632-.316.6-.11 1.214-.224 1.746-.358.256-.063.507-.143.753-.24.244-.099.493-.151.83-.564.337-.413.342-.672.391-.933.05-.262.078-.523.098-.802.034-.562.034-1.194.037-1.821 0-.63 0-1.25.02-1.717.006-.2.024-.349.036-.465.093-.07.205-.157.366-.264.384-.249.904-.553 1.434-.871a26.527 26.527 0 0 0 1.515-.95c.23-.157.437-.312.63-.488.195-.175.41-.314.586-.817.179-.502.103-.746.064-1.01a6.484 6.484 0 0 0-.181-.786 29.794 29.794 0 0 0-.57-1.727 50.964 50.964 0 0 1-.546-1.617 6.597 6.597 0 0 1-.123-.448c.062-.1.147-.224.264-.384.279-.368.665-.838 1.056-1.321.39-.483.789-.975 1.111-1.43.161-.225.305-.441.43-.675.125-.234.281-.438.281-.97 0-.536-.156-.742-.28-.974a6.22 6.22 0 0 0-.43-.676 30.57 30.57 0 0 0-1.112-1.429c-.391-.482-.777-.958-1.056-1.326a6.805 6.805 0 0 1-.266-.38c.027-.118.066-.257.122-.449.14-.442.342-1.025.55-1.617.208-.59.415-1.19.569-1.73.076-.268.142-.52.18-.78.04-.265.116-.51-.06-1.014-.179-.5-.391-.64-.587-.816-.199-.175-.41-.338-.63-.485a28.575 28.575 0 0 0-1.517-.953c-.53-.316-1.05-.625-1.431-.873a6.022 6.022 0 0 1-.367-.264 5.042 5.042 0 0 1-.039-.46c-.02-.468-.02-1.088-.02-1.717 0-.63 0-1.267-.038-1.827a6.374 6.374 0 0 0-.096-.796c-.049-.261-.053-.523-.39-.936-.338-.413-.587-.465-.831-.562a5.65 5.65 0 0 0-.753-.234 28.39 28.39 0 0 0-1.746-.358c-.601-.11-1.19-.22-1.632-.316a7.158 7.158 0 0 1-.43-.112 6.747 6.747 0 0 1-.186-.423c-.17-.433-.376-1.016-.586-1.605-.2-.574-.416-1.14-.65-1.7a6.302 6.302 0 0 0-.354-.722c-.132-.224-.227-.467-.682-.736-.456-.274-.713-.24-.972-.244-.261 0-.515.025-.789.045-.545.06-1.153.169-1.754.273-.603.11-1.194.22-1.641.28-.186.024-.32.039-.435.049a6.492 6.492 0 0 1-.31-.326c-.37-.427-.733-.86-1.088-1.299-.393-.478-.796-.97-1.172-1.374-.18-.196-.371-.38-.574-.55-.203-.166-.37-.368-.892-.462-.523-.095-.747.025-.994.112-.244.087-.479.199-.723.323-.494.249-1.031.56-1.564.871-.527.316-1.048.627-1.448.844-.166.09-.291.141-.396.189-.105-.05-.227-.1-.396-.19-.4-.216-.92-.527-1.45-.84-.512-.309-1.033-.601-1.562-.876a6.096 6.096 0 0 0-.723-.321c-.122-.043-.24-.095-.39-.125h-.003Zm-.152 2.623c.066.03.105.04.186.08.384.194.894.487 1.417.796.523.308 1.055.627 1.532.883.239.13.464.25.686.341.227.095.408.204.855.204s.623-.11.85-.204a7.94 7.94 0 0 0 .684-.34c.479-.257 1.016-.576 1.54-.884a25.953 25.953 0 0 1 1.416-.796c.08-.043.12-.05.186-.08.053.052.085.075.146.142.298.316.684.781 1.07 1.254.391.473.782.96 1.146 1.369.18.206.35.388.53.554.178.17.31.334.728.493.42.157.625.117.87.107.244 0 .49-.037.757-.075.537-.074 1.146-.186 1.737-.29a26.679 26.679 0 0 1 1.6-.254c.09 0 .127.002.2-.025l.09.196c.172.403.384.973.592 1.555.207.583.415 1.18.62 1.693.103.253.203.487.315.709.113.221.181.42.52.714.34.293.545.326.777.403.233.075.472.14.733.2.53.118 1.136.223 1.73.335.593.11 1.172.216 1.588.321.093.025.13.042.2.062.01.077.017.12.025.22.029.44.031 1.044.034 1.666 0 .62 0 1.255.024 1.807.01.279.025.532.056.779.032.246.032.458.254.85.22.392.399.498.592.65.19.155.395.299.625.448.454.299.992.612 1.512.923.52.311 1.026.622 1.383.866.08.055.11.085.17.132-.016.075-.024.12-.05.217-.12.423-.318.997-.52 1.58-.206.582-.416 1.174-.577 1.702-.08.248-.149.5-.206.754-.05.244-.122.44-.049.883.076.443.21.605.34.816.13.212.279.423.445.642.327.438.723.921 1.111 1.394.386.478.762.948 1.016 1.304.059.082.081.124.123.189-.042.067-.064.107-.123.189-.254.356-.63.821-1.016 1.299-.388.475-.781.96-1.111 1.398a7.588 7.588 0 0 0-.445.632c-.13.212-.264.384-.34.827-.073.442-.002.642.05.885.048.244.121.483.205.747.163.527.37 1.125.576 1.707.205.582.4 1.157.52 1.58.027.097.035.142.052.219-.061.047-.09.075-.171.13-.453.302-.914.59-1.383.865-.52.311-1.058.627-1.514.923-.228.15-.433.29-.623.443-.193.155-.372.26-.592.652-.22.391-.22.598-.254.846-.03.26-.049.52-.056.782-.024.552-.024 1.182-.024 1.804 0 .62-.005 1.224-.034 1.667-.008.1-.015.142-.025.224-.073.025-.107.037-.2.062-.415.105-.994.217-1.588.324-.594.112-1.2.219-1.727.336a7.773 7.773 0 0 0-.733.194c-.235.077-.44.114-.782.41-.337.291-.405.493-.518.714-.115.232-.22.468-.315.71-.205.512-.413 1.11-.62 1.692a29.28 29.28 0 0 1-.591 1.547c-.04.093-.062.125-.098.197-.069 0-.105 0-.196-.025a27.381 27.381 0 0 1-1.597-.254c-.591-.107-1.202-.219-1.735-.29a7.808 7.808 0 0 0-.76-.078c-.244 0-.449-.04-.869.117-.418.157-.55.319-.728.485a8.47 8.47 0 0 0-.53.56c-.364.408-.757.896-1.146 1.369-.388.472-.772.928-1.067 1.244l-.147.152c-.068-.03-.107-.043-.188-.082-.48-.254-.952-.52-1.417-.802-.523-.308-1.06-.627-1.539-.886a7.506 7.506 0 0 0-.684-.336c-.227-.094-.403-.203-.85-.203-.447 0-.628.109-.855.203a7.92 7.92 0 0 0-.684.341c-.479.26-1.011.578-1.534.884-.523.308-1.033.604-1.417.796-.08.042-.12.055-.186.085-.053-.053-.085-.082-.146-.15a26.326 26.326 0 0 1-1.07-1.244c-.391-.473-.782-.963-1.146-1.37a8.395 8.395 0 0 0-.53-.56c-.178-.167-.31-.33-.728-.486-.42-.157-.625-.127-.87-.117-.244 0-.49.04-.757.077-.537.075-1.146.187-1.737.291-.593.107-1.175.207-1.6.254-.088 0-.122 0-.195.025-.035-.07-.057-.102-.096-.194a31.9 31.9 0 0 1-.59-1.553c-.208-.58-.416-1.177-.621-1.692-.094-.24-.2-.476-.315-.707-.113-.224-.181-.423-.52-.716-.34-.294-.545-.331-.777-.408a7.773 7.773 0 0 0-.733-.194c-.53-.12-1.136-.224-1.73-.334a30.516 30.516 0 0 1-1.588-.326c-.093-.025-.13-.04-.2-.065-.01-.08-.017-.124-.025-.224-.029-.44-.031-1.045-.034-1.667 0-.62 0-1.249-.024-1.801a8.641 8.641 0 0 0-.056-.784c-.032-.246-.032-.453-.254-.846-.22-.39-.399-.498-.592-.65a7.848 7.848 0 0 0-.63-.443c-.454-.296-.99-.612-1.512-.92a29.291 29.291 0 0 1-1.383-.869c-.08-.054-.11-.082-.17-.129.016-.077.024-.124.05-.219.12-.423.318-.998.521-1.58.205-.582.415-1.18.577-1.707.083-.264.153-.503.205-.747.051-.243.122-.443.049-.885-.076-.443-.21-.615-.34-.827a8.157 8.157 0 0 0-.442-.632c-.33-.438-.728-.92-1.114-1.398a31.168 31.168 0 0 1-1.011-1.3c-.059-.081-.081-.121-.123-.188.042-.067.064-.107.123-.19.254-.355.627-.825 1.01-1.3.387-.479.783-.964 1.115-1.402.164-.219.313-.425.442-.637.13-.211.264-.373.34-.816.075-.443.002-.642-.05-.883a8.444 8.444 0 0 0-.204-.754 49.448 49.448 0 0 0-.577-1.702 29.252 29.252 0 0 1-.52-1.58c-.027-.097-.035-.14-.052-.217.061-.05.09-.077.171-.132a24.87 24.87 0 0 1 1.383-.866c.523-.31 1.058-.627 1.515-.92.227-.15.437-.296.627-.448.193-.157.372-.261.592-.652.22-.393.22-.605.254-.851.031-.25.046-.5.056-.78.024-.552.024-1.186.024-1.806 0-.622.005-1.226.034-1.667.005-.1.015-.14.025-.219.073-.025.107-.04.2-.062.416-.104.995-.211 1.588-.323.594-.107 1.2-.215 1.727-.334.247-.054.492-.12.733-.199.235-.077.44-.11.782-.403.337-.294.405-.495.518-.714.112-.224.212-.456.315-.71.205-.512.413-1.11.62-1.692.208-.582.418-1.152.591-1.555l.09-.194c.074 0 .11 0 .201.025.425.045 1.007.144 1.6.251.591.107 1.202.22 1.735.291.268.038.515.068.76.078.244 0 .449.047.869-.11.418-.157.55-.318.728-.488.185-.177.362-.363.53-.557.364-.41.757-.896 1.146-1.371.388-.473.772-.936 1.067-1.254.064-.067.098-.09.147-.142h.002ZM29.5 8.789c-11.455 0-20.764 9.483-20.764 21.15 0 11.669 9.31 21.152 20.764 21.152 11.455 0 20.764-9.483 20.764-21.151S40.954 8.789 29.5 8.789Zm0 2.346a18.147 18.147 0 0 1 7.066 1.428c2.24.944 4.276 2.33 5.99 4.076a18.811 18.811 0 0 1 4 6.103 19.088 19.088 0 0 1 1.4 7.198 19.083 19.083 0 0 1-1.4 7.197 18.807 18.807 0 0 1-4 6.102 18.417 18.417 0 0 1-5.99 4.075 18.141 18.141 0 0 1-7.066 1.425 18.141 18.141 0 0 1-7.066-1.425 18.417 18.417 0 0 1-5.99-4.075 18.807 18.807 0 0 1-4-6.102 19.083 19.083 0 0 1-1.4-7.197 19.088 19.088 0 0 1 1.4-7.198 18.811 18.811 0 0 1 4-6.103 18.422 18.422 0 0 1 5.99-4.076 18.147 18.147 0 0 1 7.066-1.428Zm-.056 6.893c-.735 0-1.055.386-1.3.657a5.284 5.284 0 0 0-.62.883c-.379.645-.75 1.419-1.112 2.202-.361.784-.713 1.578-1.006 2.178-.147.298-.279.555-.376.719-.02.032-.03.042-.05.067-.024 0-.036.025-.07.025-.183.047-.457.1-.782.15-.652.109-1.497.213-2.345.33-.843.117-1.686.25-2.404.428a5.14 5.14 0 0 0-1.006.341c-.325.157-.78.349-1.002 1.06-.222.712.034 1.137.21 1.458.176.319.391.585.635.871.484.565 1.095 1.165 1.718 1.757.623.595 1.255 1.18 1.727 1.647.234.234.432.44.554.585.02.025.022.035.037.057 0 .033.007.045.005.083-.02.272-.053.543-.095.813-.103.662-.264 1.508-.416 2.362-.151.853-.293 1.704-.346 2.453-.03.373-.037.722.007 1.085.049.363.085.861.684 1.297.596.435 1.072.313 1.426.243a5.113 5.113 0 0 0 1.012-.34c.679-.294 1.429-.697 2.174-1.12.747-.418 1.488-.849 2.072-1.16.293-.154.547-.276.72-.348.037-.025.049-.025.08-.025.27.112.533.235.792.368.589.304 1.33.722 2.082 1.132.752.411 1.507.814 2.19 1.1.343.142.66.256 1.017.324.354.07.83.184 1.422-.262.59-.443.63-.943.671-1.306.036-.36.034-.721-.004-1.08-.064-.746-.22-1.602-.381-2.453-.162-.854-.33-1.698-.44-2.36a10.456 10.456 0 0 1-.11-.806v-.077c.185-.228.381-.447.586-.657.464-.473 1.095-1.065 1.71-1.667.616-.597 1.222-1.2 1.698-1.772a5.38 5.38 0 0 0 .62-.885c.172-.324.428-.745.196-1.454-.232-.709-.689-.9-1.016-1.055a5.152 5.152 0 0 0-1.016-.33 24.26 24.26 0 0 0-2.407-.389c-.845-.107-1.695-.204-2.345-.298a9.922 9.922 0 0 1-.789-.15c-.032 0-.039-.025-.066-.025-.02-.024-.032-.035-.054-.067a10.453 10.453 0 0 1-.38-.709c-.301-.597-.665-1.381-1.037-2.162-.342-.749-.72-1.48-1.133-2.19a5.27 5.27 0 0 0-.635-.876c-.25-.269-.57-.647-1.302-.642v-.01Zm.017 3.135c.264.466.552 1.013.855 1.653.361.756.72 1.55 1.055 2.214.166.334.325.632.489.901.168.269.276.498.674.786.4.292.647.321.95.393.303.075.635.132.997.187.728.11 1.583.207 2.404.311a24.65 24.65 0 0 1 1.808.291c-.352.398-.775.846-1.278 1.337-.596.582-1.226 1.177-1.747 1.704-.259.266-.488.51-.684.754-.203.244-.388.418-.537.896-.147.473-.098.721-.071 1.037.024.317.073.655.134 1.02.123.74.3 1.593.457 2.422.132.697.225 1.309.286 1.841a25.599 25.599 0 0 1-1.644-.826c-.733-.398-1.483-.821-2.138-1.16-.299-.157-.604-.302-.916-.432-.29-.12-.513-.244-1.001-.24-.494 0-.709.133-1 .255a11.56 11.56 0 0 0-.91.448c-.65.343-1.398.776-2.123 1.184a24.76 24.76 0 0 1-1.637.846c.056-.535.146-1.15.269-1.846.146-.829.31-1.688.422-2.427.059-.368.098-.704.122-1.02.02-.316.066-.567-.088-1.04-.154-.473-.337-.644-.537-.886a11.79 11.79 0 0 0-.704-.746c-.525-.523-1.16-1.108-1.763-1.682a25.781 25.781 0 0 1-1.295-1.322c.518-.11 1.119-.224 1.808-.316.82-.114 1.67-.216 2.396-.336.362-.06.691-.124.992-.199.303-.077.555-.107.95-.403.396-.298.496-.527.66-.796.161-.274.317-.575.481-.91.325-.67.68-1.464 1.03-2.226.294-.641.577-1.199.834-1.667ZM14.12 55.553c.112.204.227.413.628.651.456.272.713.234.972.242.261 0 .515-.025.789-.042.545-.06 1.153-.17 1.754-.28.603-.106 1.194-.213 1.641-.273.186-.025.32-.04.435-.05.083.082.181.182.31.324.306.346.694.82 1.088 1.299l.195.229-4.856 8.572-1.102-4.19a1.333 1.333 0 0 0-.613-.81 1.29 1.29 0 0 0-.995-.13l-4.08 1.111 3.831-6.654h.003Zm30.753.024 3.826 6.644-4.08-1.114a1.29 1.29 0 0 0-.994.136c-.3.178-.52.47-.609.812l-1.101 4.18-4.857-8.562c.069-.085.137-.155.205-.24.391-.48.782-.952 1.087-1.298.1-.112.204-.22.31-.324.116 0 .25.03.436.05.447.06 1.038.167 1.641.274.601.107 1.21.216 1.754.278.274.03.528.05.79.043.258 0 .515.03.971-.242a1.47 1.47 0 0 0 .62-.637Z" fill="#F5731C"/></svg>