<svg width="35" height="29" fill="none" xmlns="http://www.w3.org/2000/svg"><path d="M31.25 6.042H27.5V2.417c0-.641-.263-1.256-.732-1.71A2.545 2.545 0 0 0 25 0H10c-.663 0-1.299.255-1.768.708A2.377 2.377 0 0 0 7.5 2.417v3.625H3.75c-.995 0-1.948.382-2.652 1.061A3.565 3.565 0 0 0 0 9.667v16.916c0 .641.263 1.256.732 1.71A2.544 2.544 0 0 0 2.5 29h30c.663 0 1.299-.255 1.768-.708A2.377 2.377 0 0 0 35 26.583V9.667c0-.962-.395-1.884-1.098-2.564a3.816 3.816 0 0 0-2.652-1.061ZM10 2.417h15v3.625H10V2.417Zm22.5 24.166h-30V15.708h10v6.042h10v-6.042h10v10.875ZM15 15.708h5v3.625h-5v-3.625ZM2.5 13.292V9.667c0-.32.132-.628.366-.855.235-.226.552-.354.884-.354h27.5c.331 0 .65.128.884.354.234.227.366.534.366.855v3.625h-30Z" fill="#fff"/></svg>