<svg width="27" height="27" fill="none" xmlns="http://www.w3.org/2000/svg"><g opacity=".5" fill="#fff"><path d="M20.25 10.969h-1.688a2.534 2.534 0 0 0-2.53-2.531V6.75a4.224 4.224 0 0 1 4.218 4.219Z"/><path d="M23.625 10.969h-1.687a5.913 5.913 0 0 0-5.907-5.906V3.375a7.602 7.602 0 0 1 7.594 7.594Zm-6.469 7.156 1.89-1.89a1.828 1.828 0 0 1 1.972-.405l2.302.922a1.828 1.828 0 0 1 1.149 1.697v4.186a1.828 1.828 0 0 1-1.927 1.83C6.408 23.461 3.149 9.795 2.544 4.563a1.824 1.824 0 0 1 1.818-2.032h4.111a1.828 1.828 0 0 1 1.698 1.15l.92 2.301a1.83 1.83 0 0 1-.405 1.972l-1.89 1.89s1.048 7.368 8.36 8.281Z"/></g></svg>