<svg width="71" height="59" fill="none" xmlns="http://www.w3.org/2000/svg"><path fill-rule="evenodd" clip-rule="evenodd" d="M58.54 35.447c.394-1.92.6-3.91.6-5.947 0-4.695-1.096-9.134-3.048-13.075h1.9l2.496 3.744a1.055 1.055 0 0 0 .88.475h5.624A1.758 1.758 0 0 1 68.75 22.4v18.633a1.055 1.055 0 1 0 2.11 0V22.401a3.885 3.885 0 0 0-3.868-3.867H61.93l-2.496-3.744a1.054 1.054 0 0 0-.88-.474h-3.616C49.778 5.738 40.379 0 29.64 0 13.348 0 .14 13.208.14 29.5S13.348 59 29.64 59c10.199 0 19.189-5.176 24.487-13.044h11.124l3.516 3.867a1.055 1.055 0 0 0 .773.352 1.054 1.054 0 0 0 .791-1.758l-11.791-12.97Zm-.614 2.457-.479-.526a7.278 7.278 0 0 1-4.517 1.547 7.383 7.383 0 0 1-5.38-12.445l-5.308-5.836h-3.375A1.758 1.758 0 0 0 37.11 22.4V42.09a1.758 1.758 0 0 0 1.758 1.758h16.556a29.49 29.49 0 0 1-1.295 2.11h-15.26A3.884 3.884 0 0 1 35 42.088V22.4a3.885 3.885 0 0 1 3.867-3.867h1.46l-4.8-5.273a1.055 1.055 0 0 1 .07-1.477 1.038 1.038 0 0 1 1.495.07L58.54 35.448c-.17.833-.376 1.652-.615 2.457Zm0 0a29.318 29.318 0 0 1-2.503 5.943h7.913l-5.41-5.943Zm-2.988-23.589h-7.633a1.054 1.054 0 0 0-.88.475l-.35.527a1.056 1.056 0 1 0 1.757 1.16l.035-.052h8.225a29.407 29.407 0 0 0-1.154-2.11Zm1.085 21.498-7.048-7.751a5.273 5.273 0 0 0 7.048 7.751Z" fill="#5189CC"/></svg>