<svg width="41" height="41" fill="none" xmlns="http://www.w3.org/2000/svg"><g clip-path="url('#clip0_66_222')"><path d="M2.456 23.27c-.745-.457-.745-1.591 0-2.048 2.01-1.23 6.016-2.644 7.82-4.827 1.538-1.859 2.087-5.471 2.972-7.73.4-1.02 2.054-1.02 2.454 0 .885 2.259 1.434 5.871 2.971 7.73 1.805 2.183 5.812 3.597 7.82 4.827.746.457.746 1.591 0 2.048-2.008 1.23-6.015 2.645-7.82 4.827-1.537 1.859-2.085 5.471-2.971 7.73-.4 1.02-2.054 1.02-2.454 0-.885-2.258-1.434-5.871-2.971-7.73-1.805-2.182-5.812-3.597-7.82-4.827Z" stroke="#fff" stroke-width="4"/><path d="M25.375 31.773c-.468-.287-.468-1 0-1.288 1.264-.774 3.307-2.141 4.442-3.514.967-1.17 1.79-2.964 2.347-4.384.252-.642 1.292-.642 1.543 0 .557 1.42 1.38 3.215 2.347 4.384 1.136 1.373 3.178 2.74 4.442 3.514.469.287.469 1 0 1.288-1.264.774-3.306 2.141-4.442 3.514-.967 1.17-1.79 2.964-2.347 4.385-.251.642-1.291.642-1.543 0-.557-1.42-1.38-3.215-2.347-4.385-1.135-1.373-3.178-2.74-4.442-3.514ZM22.624 8.974a.568.568 0 0 1 0-.956c.938-.575 2.454-1.59 3.297-2.61.718-.867 1.329-2.2 1.742-3.254.187-.476.96-.476 1.146 0 .414 1.054 1.024 2.387 1.742 3.255.843 1.019 2.36 2.034 3.298 2.609a.568.568 0 0 1 0 .956c-.938.574-2.455 1.59-3.298 2.608-.717.868-1.328 2.2-1.742 3.255-.187.477-.959.477-1.146 0-.413-1.054-1.024-2.387-1.742-3.255-.843-1.019-2.359-2.034-3.297-2.608Z" fill="#fff"/></g><defs><clipPath id="clip0_66_222"><path fill="#fff" d="M0 0h41v41H0z"/></clipPath></defs></svg>