<svg width="170" height="170" fill="none" xmlns="http://www.w3.org/2000/svg"><g clip-path="url('#clip0_238_450')"><path d="M43.108 169.398a57.217 57.217 0 0 1-19.255-3.565 32.21 32.21 0 0 1-11.923-7.755 31.968 31.968 0 0 1-7.763-11.921 57.239 57.239 0 0 1-3.56-19.254C.102 115.973 0 112.695 0 85s.112-30.962.602-41.9a57.557 57.557 0 0 1 3.565-19.247 32.334 32.334 0 0 1 7.756-11.93 32.01 32.01 0 0 1 11.925-7.756A57.235 57.235 0 0 1 43.103.602C54.037.102 57.32 0 85 0s30.962.112 41.9.602a57.56 57.56 0 0 1 19.252 3.565 32.09 32.09 0 0 1 11.923 7.755 32.107 32.107 0 0 1 7.758 11.926 57.218 57.218 0 0 1 3.567 19.255c.5 10.939.602 14.214.602 41.9 0 27.687-.102 30.962-.602 41.9a57.493 57.493 0 0 1-3.567 19.254 34.338 34.338 0 0 1-19.681 19.676 57.222 57.222 0 0 1-19.255 3.567c-10.929.5-14.214.602-41.9.602-27.687 0-30.962-.097-41.89-.602" fill="url('#paint0_radial_238_450')"/><path d="M43.108 169.398a57.217 57.217 0 0 1-19.255-3.565 32.21 32.21 0 0 1-11.923-7.755 31.968 31.968 0 0 1-7.763-11.921 57.239 57.239 0 0 1-3.56-19.254C.102 115.973 0 112.695 0 85s.112-30.962.602-41.9a57.557 57.557 0 0 1 3.565-19.247 32.334 32.334 0 0 1 7.756-11.93 32.01 32.01 0 0 1 11.925-7.756A57.235 57.235 0 0 1 43.103.602C54.037.102 57.32 0 85 0s30.962.112 41.9.602a57.56 57.56 0 0 1 19.252 3.565 32.09 32.09 0 0 1 11.923 7.755 32.107 32.107 0 0 1 7.758 11.926 57.218 57.218 0 0 1 3.567 19.255c.5 10.939.602 14.214.602 41.9 0 27.687-.102 30.962-.602 41.9a57.493 57.493 0 0 1-3.567 19.254 34.338 34.338 0 0 1-19.681 19.676 57.222 57.222 0 0 1-19.255 3.567c-10.929.5-14.214.602-41.9.602-27.687 0-30.962-.097-41.89-.602" fill="url('#paint1_radial_238_450')"/><path d="M64.128 85.362a21.051 21.051 0 1 1 42.103.003 21.051 21.051 0 0 1-42.103-.003m-11.381 0a32.43 32.43 0 1 0 64.862 0 32.43 32.43 0 0 0-64.862 0m58.565-33.715a7.577 7.577 0 0 0 12.934 5.364 7.573 7.573 0 0 0 1.647-8.258 7.578 7.578 0 0 0-7-4.681 7.58 7.58 0 0 0-7.578 7.575m-51.65 85.123a34.899 34.899 0 0 1-11.728-2.167 20.91 20.91 0 0 1-11.989-11.983 34.874 34.874 0 0 1-2.166-11.728c-.307-6.657-.367-8.657-.367-25.522s.067-18.86.367-25.523c.048-4.005.781-7.971 2.166-11.729A20.901 20.901 0 0 1 47.937 36.13a34.875 34.875 0 0 1 11.728-2.167c6.657-.306 8.657-.366 25.515-.366s18.86.065 25.523.368a35.14 35.14 0 0 1 11.729 2.167A20.902 20.902 0 0 1 134.42 48.12a34.898 34.898 0 0 1 2.167 11.728c.306 6.667.366 8.657.366 25.524 0 16.866-.061 18.86-.366 25.523a35.053 35.053 0 0 1-2.167 11.728 20.917 20.917 0 0 1-11.988 11.984 34.875 34.875 0 0 1-11.729 2.166c-6.656.307-8.656.367-25.523.367-16.867 0-18.86-.062-25.515-.367m-.523-114.181a46.313 46.313 0 0 0-15.334 2.933 32.29 32.29 0 0 0-18.471 18.472 46.324 46.324 0 0 0-2.934 15.333c-.311 6.733-.381 8.887-.381 26.038 0 17.152.071 19.304.381 26.039a46.32 46.32 0 0 0 2.934 15.333 32.289 32.289 0 0 0 18.471 18.472 46.372 46.372 0 0 0 15.334 2.933c6.736.307 8.886.382 26.038.382s19.303-.072 26.038-.382a46.35 46.35 0 0 0 15.334-2.933 32.28 32.28 0 0 0 18.471-18.472 46.192 46.192 0 0 0 2.934-15.333c.306-6.739.376-8.887.376-26.039 0-17.151-.071-19.303-.376-26.038a46.296 46.296 0 0 0-2.934-15.333 32.292 32.292 0 0 0-18.466-18.472 46.248 46.248 0 0 0-15.334-2.933c-6.735-.309-8.886-.382-26.035-.382-17.148 0-19.305.072-26.043.382" fill="#fff"/></g><defs><radialGradient id="paint0_radial_238_450" cx="0" cy="0" r="1" gradientUnits="userSpaceOnUse" gradientTransform="translate(11.002 166.277) scale(215.837)"><stop offset=".09" stop-color="#FA8F21"/><stop offset=".78" stop-color="#D82D7E"/></radialGradient><radialGradient id="paint1_radial_238_450" cx="0" cy="0" r="1" gradientUnits="userSpaceOnUse" gradientTransform="translate(117.753 160.817) scale(189.938)"><stop offset=".64" stop-color="#8C3AAA" stop-opacity="0"/><stop offset="1" stop-color="#8C3AAA"/></radialGradient><clipPath id="clip0_238_450"><path fill="#fff" d="M0 0h170v170H0z"/></clipPath></defs></svg>