<svg width="170" height="170" viewBox="0 0 170 170" fill="none" xmlns="http://www.w3.org/2000/svg">
<g clip-path="url('#clip0_238_450')">
<path d="M43.1083 169.398C36.5329 169.325 30.0192 168.119 23.8533 165.833C19.3507 164.169 15.277 161.519 11.93 158.078C8.47961 154.738 5.82614 150.663 4.16667 146.157C1.88292 139.991 0.678637 133.478 0.606667 126.903C0.101667 115.973 0 112.695 0 85C0 57.305 0.111667 54.0383 0.601667 43.1C0.682371 36.528 1.88814 30.0183 4.16667 23.8533C5.83422 19.35 8.48393 15.2746 11.9233 11.9233C15.2662 8.47605 19.3418 5.82504 23.8483 4.16667C30.0142 1.88103 36.5279 0.675047 43.1033 0.601667C54.0367 0.101667 57.32 0 85 0C112.68 0 115.962 0.111667 126.9 0.601667C133.474 0.681801 139.985 1.88758 146.152 4.16667C150.656 5.82723 154.731 8.47731 158.075 11.9217C161.52 15.2671 164.172 19.3427 165.833 23.8483C168.12 30.0141 169.326 36.5278 169.4 43.1033C169.9 54.0417 170.002 57.3167 170.002 85.0033C170.002 112.69 169.9 115.965 169.4 126.903C169.321 133.478 168.114 139.99 165.833 146.157C164.108 150.629 161.465 154.69 158.076 158.079C154.686 161.468 150.624 164.109 146.152 165.833C139.986 168.12 133.472 169.326 126.897 169.4C115.968 169.9 112.683 170.002 84.9967 170.002C57.31 170.002 54.035 169.905 43.1067 169.4" fill="url('#paint0_radial_238_450')"></path>
<path d="M43.1083 169.398C36.5329 169.325 30.0192 168.119 23.8533 165.833C19.3507 164.169 15.277 161.519 11.93 158.078C8.47961 154.738 5.82614 150.663 4.16667 146.157C1.88292 139.991 0.678637 133.478 0.606667 126.903C0.101667 115.973 0 112.695 0 85C0 57.305 0.111667 54.0383 0.601667 43.1C0.682371 36.528 1.88814 30.0183 4.16667 23.8533C5.83422 19.35 8.48393 15.2746 11.9233 11.9233C15.2662 8.47605 19.3418 5.82504 23.8483 4.16667C30.0142 1.88103 36.5279 0.675047 43.1033 0.601667C54.0367 0.101667 57.32 0 85 0C112.68 0 115.962 0.111667 126.9 0.601667C133.474 0.681801 139.985 1.88758 146.152 4.16667C150.656 5.82723 154.731 8.47731 158.075 11.9217C161.52 15.2671 164.172 19.3427 165.833 23.8483C168.12 30.0141 169.326 36.5278 169.4 43.1033C169.9 54.0417 170.002 57.3167 170.002 85.0033C170.002 112.69 169.9 115.965 169.4 126.903C169.321 133.478 168.114 139.99 165.833 146.157C164.108 150.629 161.465 154.69 158.076 158.079C154.686 161.468 150.624 164.109 146.152 165.833C139.986 168.12 133.472 169.326 126.897 169.4C115.968 169.9 112.683 170.002 84.9967 170.002C57.31 170.002 54.035 169.905 43.1067 169.4" fill="url('#paint1_radial_238_450')"></path>
<path d="M64.1284 85.3616C64.1287 81.1979 65.3638 77.1278 67.6773 73.6661C69.9908 70.2043 73.2789 67.5063 77.1258 65.9133C80.9728 64.3203 85.2057 63.9038 89.2893 64.7166C93.3729 65.5293 97.1238 67.5347 100.068 70.4793C103.011 73.4238 105.016 77.1752 105.828 81.259C106.64 85.3428 106.222 89.5756 104.628 93.4221C103.034 97.2687 100.335 100.556 96.8731 102.869C93.4108 105.182 89.3404 106.416 85.1767 106.415C79.5938 106.414 74.2398 104.195 70.2925 100.247C66.3452 96.2991 64.128 90.9446 64.1284 85.3616M52.7467 85.3616C52.7467 91.7757 54.6487 98.0457 58.2122 103.379C61.7756 108.712 66.8405 112.869 72.7663 115.323C78.6921 117.778 85.2127 118.42 91.5035 117.169C97.7943 115.917 103.573 112.828 108.108 108.293C112.644 103.758 115.732 97.9792 116.984 91.6884C118.235 85.3976 117.593 78.877 115.138 72.9512C112.684 67.0254 108.527 61.9605 103.194 58.397C97.8608 54.8336 91.5908 52.9316 85.1767 52.9316C80.9179 52.9314 76.7007 53.7701 72.7661 55.3998C68.8314 57.0294 65.2562 59.4182 62.2448 62.4296C59.2333 65.4411 56.8446 69.0162 55.2149 72.9509C53.5852 76.8856 52.7465 81.1028 52.7467 85.3616M111.312 51.6466C111.311 53.1455 111.755 54.6109 112.587 55.8575C113.419 57.1041 114.602 58.0759 115.987 58.6501C117.371 59.2243 118.895 59.3751 120.365 59.0833C121.835 58.7916 123.186 58.0704 124.246 57.011C125.307 55.9516 126.029 54.6016 126.322 53.1317C126.615 51.6618 126.466 50.1379 125.893 48.7529C125.32 47.3679 124.349 46.1839 123.103 45.3507C121.857 44.5174 120.392 44.0723 118.893 44.0716V44.0716C116.884 44.0725 114.958 44.8708 113.537 46.2911C112.116 47.7114 111.317 49.6376 111.315 51.6466M59.6651 136.77C55.6603 136.726 51.6929 135.993 47.9367 134.603C45.2127 133.553 42.7387 131.945 40.6739 129.881C38.6092 127.817 36.9995 125.344 35.9484 122.62C34.558 118.864 33.8251 114.896 33.7817 110.892C33.4751 104.235 33.4151 102.235 33.4151 85.37C33.4151 68.505 33.4817 66.51 33.7817 59.8466C33.8303 55.8423 34.5631 51.8757 35.9484 48.1183C36.9983 45.3934 38.6075 42.9188 40.6723 40.8539C42.7372 38.7891 45.2118 37.1798 47.9367 36.1299C51.6927 34.7396 55.6602 34.0067 59.6651 33.9633C66.3217 33.6566 68.3217 33.5966 85.18 33.5966C102.038 33.5966 104.04 33.6616 110.703 33.965C114.708 34.0136 118.674 34.7463 122.432 36.1316C125.157 37.1816 127.631 38.7909 129.696 40.8557C131.761 42.9205 133.37 45.3951 134.42 48.1199C135.81 51.876 136.543 55.8435 136.587 59.8483C136.893 66.515 136.953 68.505 136.953 85.3716C136.953 102.238 136.892 104.232 136.587 110.895C136.54 114.899 135.807 118.866 134.42 122.623C133.369 125.347 131.759 127.82 129.695 129.884C127.63 131.948 125.156 133.557 122.432 134.607C118.676 135.997 114.708 136.73 110.703 136.773C104.047 137.08 102.047 137.14 85.18 137.14C68.3134 137.14 66.3201 137.078 59.6651 136.773M59.1417 22.5916C53.9015 22.6947 48.7167 23.6865 43.8084 25.5249C39.6126 27.1472 35.802 29.6284 32.6211 32.8093C29.4402 35.9903 26.959 39.8008 25.3367 43.9966C23.4985 48.905 22.5067 54.0897 22.4034 59.33C22.0917 66.0633 22.0217 68.2166 22.0217 85.3683C22.0217 102.52 22.0934 104.672 22.4034 111.407C22.5067 116.647 23.4985 121.832 25.3367 126.74C26.9591 130.936 29.4403 134.746 32.6212 137.927C35.8021 141.108 39.6126 143.589 43.8084 145.212C48.7169 147.049 53.9015 148.041 59.1417 148.145C65.8784 148.452 68.0284 148.527 85.18 148.527C102.332 148.527 104.483 148.455 111.218 148.145C116.459 148.041 121.643 147.05 126.552 145.212C130.747 143.589 134.558 141.108 137.739 137.927C140.92 134.746 143.401 130.936 145.023 126.74C146.864 121.832 147.856 116.647 147.957 111.407C148.263 104.668 148.333 102.52 148.333 85.3683C148.333 68.2166 148.262 66.065 147.957 59.33C147.854 54.0897 146.862 48.9049 145.023 43.9966C143.401 39.8016 140.921 35.9916 137.741 32.8108C134.561 29.63 130.751 27.1483 126.557 25.5249C121.649 23.6853 116.464 22.6934 111.223 22.5916C104.488 22.2833 102.337 22.21 85.1884 22.21C68.0401 22.21 65.8834 22.2816 59.145 22.5916" fill="white"></path>
</g>
<defs>
<radialGradient id="paint0_radial_238_450" cx="0" cy="0" r="1" gradientUnits="userSpaceOnUse" gradientTransform="translate(11.0017 166.277) scale(215.837)">
<stop offset="0.09" stop-color="#FA8F21"></stop>
<stop offset="0.78" stop-color="#D82D7E"></stop>
</radialGradient>
<radialGradient id="paint1_radial_238_450" cx="0" cy="0" r="1" gradientUnits="userSpaceOnUse" gradientTransform="translate(117.753 160.817) scale(189.938)">
<stop offset="0.64" stop-color="#8C3AAA" stop-opacity="0"></stop>
<stop offset="1" stop-color="#8C3AAA"></stop>
</radialGradient>
<clipPath id="clip0_238_450">
<rect width="170" height="170" fill="white"></rect>
</clipPath>
</defs>
</svg>
